<?xml version="1.0" encoding="UTF-8" standalone="no"?>
<!-- Created with Inkscape (http://www.inkscape.org/) -->

<svg
   xmlns:dc="http://purl.org/dc/elements/1.1/"
   xmlns:cc="http://creativecommons.org/ns#"
   xmlns:rdf="http://www.w3.org/1999/02/22-rdf-syntax-ns#"
   xmlns:svg="http://www.w3.org/2000/svg"
   xmlns="http://www.w3.org/2000/svg"
   xmlns:sodipodi="http://sodipodi.sourceforge.net/DTD/sodipodi-0.dtd"
   xmlns:inkscape="http://www.inkscape.org/namespaces/inkscape"
   width="210mm"
   height="297mm"
   viewBox="0 0 744.09448819 1052.3622047"
   id="svg6245"
   version="1.1"
   inkscape:version="0.91 r13725"
   sodipodi:docname="gamejammed.svg">
  <defs
     id="defs6247" />
  <sodipodi:namedview
     id="base"
     pagecolor="#ffffff"
     bordercolor="#666666"
     borderopacity="1.0"
     inkscape:pageopacity="0.0"
     inkscape:pageshadow="2"
     inkscape:zoom="0.90777595"
     inkscape:cx="49.194545"
     inkscape:cy="392.36287"
     inkscape:document-units="px"
     inkscape:current-layer="layer1"
     showgrid="false"
     inkscape:window-width="1920"
     inkscape:window-height="1056"
     inkscape:window-x="0"
     inkscape:window-y="24"
     inkscape:window-maximized="1" />
  <metadata
     id="metadata6250">
    <rdf:RDF>
      <cc:Work
         rdf:about="">
        <dc:format>image/svg+xml</dc:format>
        <dc:type
           rdf:resource="http://purl.org/dc/dcmitype/StillImage" />
        <dc:title></dc:title>
      </cc:Work>
    </rdf:RDF>
  </metadata>
  <g
     inkscape:label="Layer 1"
     inkscape:groupmode="layer"
     id="layer1">
    <ellipse
       style="opacity:1;fill:#550044;fill-opacity:1;fill-rule:evenodd;stroke:none;stroke-width:1;stroke-linecap:round;stroke-linejoin:round;stroke-miterlimit:4;stroke-dasharray:none;stroke-opacity:1"
       id="path6934"
       ry="102.04168"
       rx="257.83051"
       cy="526.18109"
       cx="372.04724" />
    <path
       style="color:#000000;font-style:normal;font-variant:normal;font-weight:normal;font-stretch:normal;font-size:medium;line-height:normal;font-family:sans-serif;text-indent:0;text-align:start;text-decoration:none;text-decoration-line:none;text-decoration-style:solid;text-decoration-color:#000000;letter-spacing:normal;word-spacing:normal;text-transform:none;direction:ltr;block-progression:tb;writing-mode:lr-tb;baseline-shift:baseline;text-anchor:start;white-space:normal;clip-rule:nonzero;display:inline;overflow:visible;visibility:visible;opacity:1;isolation:auto;mix-blend-mode:normal;color-interpolation:sRGB;color-interpolation-filters:linearRGB;solid-color:#000000;solid-opacity:1;fill:#ff0066;fill-opacity:1;fill-rule:evenodd;stroke:none;stroke-width:1;stroke-linecap:round;stroke-linejoin:round;stroke-miterlimit:4;stroke-dasharray:none;stroke-dashoffset:0;stroke-opacity:1;color-rendering:auto;image-rendering:auto;shape-rendering:auto;text-rendering:auto;enable-background:accumulate"
       d="m 344.65131,382.88121 c -3.06206,-0.17166 -6.1283,-0.0863 -9.16797,0.27734 -11.74387,1.40496 -23.02353,7.39598 -31.1914,18.59961 -20.11609,2.95465 -34.84332,8.7168 -44.88672,17.12891 -11.72167,9.81778 -16.29822,23.34055 -15.21289,37.88086 -0.98392,1.27419 -1.95724,2.44253 -2.95703,3.86523 -23.69824,33.72248 -39.07046,46.67166 -47.61524,48.62695 -1.58572,0.36286 -2.93627,0.37604 -4.22656,0.22071 -4.66419,-3.96156 -9.09829,-7.3742 -13.27539,-10.16797 -1.46798,-1.82872 -2.93736,-3.68119 -4.48828,-5.8457 -8.15825,-11.38589 -17.59614,-26.55008 -33.52735,-35.8418 -15.88786,-9.26644 -37.99149,-11.87067 -69.111328,0.15039 -1.292061,0.25914 -2.669196,0.48173 -2.669922,0.48242 -0.0015,0.001 -0.678817,6.47525 -0.408203,6.80469 0.541229,0.65887 0.547537,0.57322 0.654297,0.66601 0.10676,0.0928 0.189427,0.15937 0.279297,0.23243 0.17974,0.14611 0.381911,0.30611 0.638672,0.50586 a 5.0005,5.0005 0 0 0 1.064453,0.62695 c 0.806275,0.56198 1.646526,1.14691 3.294922,2.31836 4.379617,3.11241 11.443881,8.1622 20.181639,14.35351 8.916973,6.3183 19.599453,13.83284 30.955083,21.70899 -0.24801,0.82554 -0.62456,1.60209 -0.80469,2.44726 -1.86285,8.74066 -0.64756,18.66995 3.1875,27.82032 3.83507,9.15036 10.40172,17.59548 19.73047,22.64453 9.32875,5.04905 21.35094,6.40289 34.81445,1.90234 4.84137,-1.61836 9.95594,-4.24131 15.19922,-7.38867 7.32902,4.34839 14.05434,8.13108 19.23438,10.50391 1.38066,0.63244 2.61789,1.13769 3.83398,1.60546 -1.50157,6.25669 -2.81887,12.36184 -3.76758,18.13672 -3.08192,18.75996 -3.33942,34.87195 -1.08008,47.80664 2.25935,12.9347 7.01944,22.95312 14.86133,28.61328 7.84189,5.66016 18.39831,5.87698 28.96485,0.80469 10.56653,-5.07229 21.77821,-15.05768 33.74609,-30.51953 9.11719,-11.77891 18.66313,-26.82591 28.44336,-45.37305 4.28858,11.61698 9.19771,23.92512 14.60352,36.78711 -0.85542,5.07676 -1.61558,9.97716 -2.19922,14.51563 -1.27206,9.89156 -1.8917,18.37694 -1.75977,25.13086 0.13193,6.75392 0.29586,11.6697 3.73438,15.8164 1.71926,2.07335 5.37868,3.39147 8.14843,2.65625 2.76976,-0.73521 4.66072,-2.39124 6.61133,-4.49804 1.88422,-2.03509 3.8243,-4.72099 5.88672,-8.02735 3.28698,6.97765 6.32356,13.6865 9.91016,20.98438 2.1489,4.37251 5.55387,7.72275 9.76953,9.05664 4.21566,1.33388 8.68498,0.66864 12.98242,-1.05274 8.59488,-3.44274 17.475,-11.11437 27.01758,-21.71093 8.15679,-9.05772 16.67212,-20.63785 25.08789,-33.35547 8.40578,3.13758 16.69272,5.88381 24.63672,7.7539 21.24626,5.00159 40.62865,5.26226 55.91601,-2.00195 14.371,-6.82877 23.34408,-14.85326 27.5625,-24.21484 1.34454,-2.98382 1.99931,-6.05502 2.36524,-9.15235 3.70443,-3.29316 7.59865,-6.89753 11.95508,-11.2207 25.70437,-25.50816 46.96203,-50.76463 61.88671,-73.83203 14.92469,-23.0674 23.71584,-43.86907 23.62696,-61.37891 -0.0444,-8.75491 -2.49842,-16.79821 -7.76758,-23.13476 -5.26916,-6.33655 -13.12532,-10.78078 -23.21484,-13.26563 -20.17906,-4.9697 -49.68968,-2.66324 -91.25586,8.21485 -1.07795,0.2821 -1.94454,0.59747 -2.98828,0.88476 -1.3132,-3.62986 -2.80165,-7.1246 -4.69727,-10.29687 a 5.0005,5.0005 0 0 0 -0.084,-0.13477 c -17.50299,-27.27122 -35.55169,-40.39989 -53.81054,-41.37109 -15.15563,-0.80614 -29.15901,6.85908 -41.82813,19.3125 -12.32032,-1.94414 -23.90354,-3.49611 -34.75195,-4.66406 -11.37209,-11.16902 -26.64911,-18.53582 -42.03711,-19.39844 z m -0.60351,10.03906 c 8.05577,0.54619 16.36428,3.44847 23.90234,7.88867 -14.42112,-1.0302 -27.92053,-1.58094 -39.53906,-1.16797 -3.01934,0.10732 -5.85328,0.31001 -8.69532,0.50782 5.10979,-3.98626 10.80244,-6.32449 16.95508,-7.06055 2.408,-0.28808 4.87857,-0.33736 7.37696,-0.16797 z m 118.68945,4.69727 c 13.78815,0.7334 29.27902,10.88816 45.86719,36.70117 1.41052,2.36856 2.5671,5.09502 3.60937,7.97265 -4.86932,1.58422 -9.36809,3.23293 -13.38867,4.97266 -1.14112,-3.64341 -2.51001,-7.14045 -4.29688,-10.35742 -6.32236,-11.38238 -17.14592,-19.56535 -32.08007,-22.57031 -10.105,-2.03327 -19.28973,-3.57391 -28.57618,-5.16993 9.56979,-7.91472 19.25001,-12.06027 28.86524,-11.54882 z m -121.50977,11.84765 c 12.012,0.0825 25.66034,0.95092 40.56055,2.44922 2.90063,3.10846 5.53397,6.41787 7.54687,10.01172 3.6167,6.45726 5.54659,13.44483 5.43555,20.67383 -1.47265,2.49938 -2.90319,5.08388 -4.33398,7.69336 -3.7301,-1.25909 -7.9407,-1.46911 -12.30274,-0.46094 -5.53304,1.27882 -11.3658,4.28482 -17.79297,9.12109 a 5.0005,5.0005 0 0 0 -1.75,2.45313 c -5.34388,16.46888 -10.70483,31.45681 -16.05273,45.60547 -1.92999,0.16058 -3.72691,-0.236 -5.65234,-1.03711 -7.63453,-3.17648 -16.55166,-15.55869 -25.16797,-29.09375 -3.65154,-5.73606 -7.30686,-11.54505 -11.15625,-16.95899 -0.0293,-1.25973 -0.19993,-2.72517 -0.20117,-3.94336 -0.0212,-20.67563 4.01469,-35.06763 9.90234,-44.87304 5.70192,-0.69965 11.78768,-1.23198 18.5039,-1.47071 3.97407,-0.14125 8.12563,-0.19969 12.46094,-0.16992 z m -43.38086,3.58399 c -4.04328,9.29576 -6.38308,21.10932 -7.07617,35.12109 -2.48678,-2.36175 -5.1128,-4.42392 -7.95312,-6.02148 -5.96446,-3.35477 -13.32546,-4.29214 -20.4336,-1.25391 -2.70096,1.15447 -5.35275,2.95811 -8.0039,5.10937 1.21723,-7.47658 4.83628,-13.91202 11.44726,-19.44921 6.86971,-5.7539 17.34742,-10.48982 32.01953,-13.50586 z m 97.92774,0.54297 c 5.64297,0.69655 11.37352,1.43981 17.40625,2.33593 -3.49772,4.18994 -6.91638,8.70539 -10.23438,13.57813 -1.16934,-4.33674 -2.69933,-8.56142 -4.88672,-12.4668 -0.67214,-1.20004 -1.53301,-2.29105 -2.28515,-3.44726 z m 29.13672,4.11718 c 11.28654,1.84549 22.97127,3.89772 35.56445,6.43164 12.53603,2.52243 20.2792,8.56299 25.31055,17.6211 1.64691,2.96499 2.86136,6.40826 3.88086,10.05273 -3.67431,2.05523 -7.03397,4.18172 -9.83399,6.45117 -9.58032,7.765 -14.10353,17.29055 -14.06836,27.01172 0.0488,13.48697 7.56098,26.67558 17.52344,39.82813 -5.32206,17.85838 -12.64135,36.51126 -21.15039,54.52734 -8.1865,17.33317 -17.4454,34.07157 -26.89258,49.01563 -11.22309,-4.60189 -22.79867,-10.21319 -34.41992,-16.68164 -5.81285,-3.23547 -11.63195,-6.68885 -17.42383,-10.30665 5.86214,-15.52729 12.1892,-33.04787 19.35742,-54.29492 l -0.0781,0.2168 c 6.92,-17.75933 10.35021,-47.6248 5.85547,-70.17188 -1.36271,-6.83579 -3.61571,-13.01996 -6.99414,-18.00585 0.68939,-1.76723 1.28875,-3.54014 1.75781,-5.31641 0.73782,-2.7941 1.14695,-5.57567 1.36133,-8.33789 5.40497,-9.03756 10.98434,-17.34608 16.77929,-24.19141 1.15299,-1.36197 2.31223,-2.59506 3.47071,-3.84961 z m 164.67773,20.25 c 9.65797,-0.24942 17.67958,0.49856 24.125,2.08594 8.5939,2.11651 14.28755,5.58573 17.91602,9.94922 3.62846,4.36349 5.42157,9.80572 5.45703,16.79101 0.0709,13.97059 -7.64536,33.67197 -22.02344,55.89454 -14.37808,22.22257 -35.21869,47.04475 -60.53516,72.16796 -1.99751,1.98227 -3.78419,3.63559 -5.62695,5.37696 -0.54972,-2.35596 -1.27106,-4.704 -2.17578,-7.02149 -5.20815,-13.34093 -15.57845,-26.60227 -26.72266,-39.73047 2.62877,-17.50764 5.32596,-35.88703 6.66797,-54.17187 1.32459,-18.04757 1.28751,-35.39637 -2.02734,-50.26367 0.96256,-0.26505 1.74015,-0.55375 2.73633,-0.81446 25.47011,-6.66566 46.11236,-9.84796 62.20898,-10.26367 z m -321.84766,11.67969 c -3.75685,6.5852 -7.49912,13.07742 -11.1289,18.91602 -0.65549,-2.15464 -1.2202,-4.2726 -1.63281,-6.32813 -0.17142,-0.85393 -0.25428,-1.65957 -0.38672,-2.49219 4.49211,-5.20202 8.46797,-8.25338 11.72265,-9.64453 0.5062,-0.21636 0.94903,-0.29498 1.42578,-0.45117 z m 10.67774,1.57227 c 3.92926,2.38312 8.08305,6.9058 12.33008,12.53125 0.83365,20.31542 5.02559,45.0274 13.51367,74.82421 -8.42716,-8.57443 -16.1526,-17.23604 -22.8086,-25.80468 -8.5242,-10.97369 -15.10258,-21.7042 -19.82812,-31.83985 2.05658,-3.92404 4.05323,-7.82205 6.28906,-11.82226 3.45805,-5.70373 6.94153,-11.55047 10.50391,-17.88867 z m 236.49609,0.71875 c 2.74546,13.16493 3.04701,29.39268 1.78125,46.63867 -1.08288,14.75434 -3.14243,29.94215 -5.32226,44.76953 -2.10601,-2.43152 -4.22907,-4.87321 -6.29102,-7.29297 -3.78862,-4.44607 -7.38554,-8.85906 -10.73047,-13.20312 4.34639,-15.60223 7.22397,-30.72079 7.85352,-44.53321 0.33865,-7.42998 -0.009,-14.47772 -1.06055,-21.08594 4.01412,-1.82032 8.59405,-3.58621 13.76953,-5.29296 z m -129.85937,7.26562 c 0.20978,0.0227 0.35938,0.14098 0.56054,0.17578 -2.68574,5.28783 -5.26567,10.75149 -7.78515,16.34375 -2.81589,2.57073 -5.99537,5.12433 -9.66016,7.64258 a 5.0005,5.0005 0 0 0 -1.38476,1.43359 c -3.71208,5.82127 -7.16538,10.22061 -10.3418,13.57227 3.69597,-10.22019 7.39234,-20.86155 11.08008,-32.16602 5.11468,-3.67187 9.50369,-5.84701 12.86133,-6.62304 1.81545,-0.4196 3.33447,-0.52361 4.66992,-0.37891 z m -276.29688,0.34766 c 9.84283,0.22916 17.67054,2.8514 24.30469,6.7207 9.66159,5.63503 16.89972,14.35622 23.38672,23.21289 -6.68254,-1.99823 -12.69437,-2.37969 -17.8711,-0.85742 -4.68541,1.37779 -8.37329,4.19777 -11.14257,7.7793 -10.83938,-7.52628 -21.06639,-14.72582 -29.628913,-20.79297 -7.04474,-4.9917 -11.94599,-8.49083 -16.29492,-11.58789 10.55772,-3.29856 19.546803,-4.65387 27.246093,-4.47461 z m 382.88281,2.73047 c 0.55397,4.87166 0.8283,10.00553 0.57422,15.58007 -0.4793,10.51597 -2.4091,22.12787 -5.39843,34.28907 -6.54971,-9.91651 -11.02483,-19.18738 -11.05274,-26.90039 -0.0247,-6.84285 2.54541,-12.86895 10.36524,-19.20704 1.56006,-1.26445 3.50769,-2.51496 5.51171,-3.76171 z m -95.76562,7.80859 c 1.12886,2.70747 2.14224,5.71522 2.85352,9.2832 3.93915,19.76008 0.50528,49.51496 -5.36719,64.58594 a 5.0005,5.0005 0 0 0 -0.0781,0.2168 c -6.82143,20.21913 -12.84978,36.91945 -18.46289,51.86718 -7.45176,-4.90356 -14.8245,-10.00766 -22.02734,-15.38671 1.17966,-4.73527 2.35282,-9.46949 3.67969,-14.33594 7.70059,-28.24285 17.96409,-58.19336 29.90625,-84.9668 3.76882,-3.66361 6.92654,-7.42921 9.49609,-11.26367 z m -149.23633,0.0352 c 0.82916,2.92396 1.92613,5.89362 3.10547,8.87695 -14.59245,22.13275 -28.04458,38.42812 -40.13281,49.85742 -3.73647,-3.98947 -7.28579,-7.50256 -10.76563,-10.83789 12.80787,-4.38165 27.01842,-18.83261 47.79297,-47.89648 z m 55.53906,10.4375 c 0.36741,0.57477 0.73658,1.12084 1.10352,1.69726 8.66727,13.6151 17.14409,27.7053 29.76172,32.95508 1.86851,0.77742 3.86144,1.2026 5.90039,1.43945 -5.60431,14.32107 -11.16674,27.1536 -16.67188,39.04688 -1.04821,-0.93822 -2.14096,-1.85334 -3.17382,-2.79688 -9.09651,-28.43574 -14.48015,-52.39006 -16.91993,-72.34179 z m -46.28711,11.60546 c 4.74415,8.79074 10.67373,17.73728 17.66407,26.73633 10.31141,13.27447 22.87649,26.61394 36.76758,39.49024 1.3881,4.27545 2.79789,8.57374 4.35156,13.03906 -11.05471,21.99827 -21.75333,39.47784 -31.68164,52.30469 -11.37547,14.69648 -21.79406,23.60907 -30.16407,27.62695 -8.37,4.01788 -14.05663,3.51595 -18.7871,0.10156 -4.73048,-3.41438 -8.87181,-10.82542 -10.86329,-22.22656 -1.99147,-11.40114 -1.84853,-26.53112 1.09766,-44.46484 0.97462,-5.93262 2.37618,-12.27604 3.97852,-18.79493 1.50338,-0.67853 3.11773,-1.93699 3.70117,-3.64648 0.70347,-2.06119 0.32312,-3.6998 -0.125,-5.08789 -0.1967,-0.6093 -0.5805,-1.20322 -0.85547,-1.79102 5.49539,-19.18171 13.73749,-40.51555 24.91601,-63.28711 z m -110.00195,5.47071 c 5.14023,0.0283 12.24949,2.06676 21.47071,7.74609 0.52443,0.323 1.1466,0.82974 1.68359,1.17578 2.45043,2.9957 5.00168,5.7688 7.90234,7.99024 2.22832,1.70652 4.78454,2.98869 7.50196,3.86328 5.47765,4.76277 11.3117,10.30501 17.67578,17.08008 -2.43238,2.00574 -4.87581,4.05518 -7.17969,5.67382 -9.86942,-6.03111 -21.15312,-13.31643 -32.74805,-21.05078 -8.86653,-5.91438 -17.78905,-12.06271 -26.57812,-18.12109 1.50846,-1.77003 3.38924,-3.072 5.78125,-3.77539 1.28135,-0.3768 2.77682,-0.59146 4.49023,-0.58203 z m 221.17188,3.75781 c -7.86474,20.50622 -14.66095,41.84653 -20.23633,62.29492 -0.95376,3.49803 -1.76688,6.86965 -2.64649,10.30469 -4.77219,-3.74414 -9.44141,-7.5443 -14.0039,-11.43164 6.63222,-14.1565 13.33415,-29.99202 20.06055,-47.5293 1.23588,-0.49084 2.47625,-0.94338 3.6914,-1.65625 4.38949,-2.5751 8.71309,-6.61822 13.13477,-11.98242 z M 131.78608,511.4789 c 8.24862,5.67576 16.55479,11.41034 24.86132,16.95118 10.182,6.79186 19.80828,12.97881 28.82422,18.58789 -3.05299,1.59978 -5.97121,2.86409 -8.73242,3.78711 -11.27727,3.76973 -19.95977,2.53516 -26.88476,-1.21289 -6.925,-3.74806 -12.16254,-10.30824 -15.26758,-17.7168 -2.87771,-6.86614 -3.74149,-14.33532 -2.80078,-20.39649 z m 101.30468,7.125 c -3.63104,9.10275 -6.64564,17.82677 -9.29882,26.30079 -0.58902,-0.71913 -1.03852,-1.32944 -1.69727,-2.10547 -1.97989,-2.3324 -3.78453,-4.20828 -5.69922,-6.36914 5.38529,-5.06655 10.9549,-11.01988 16.69531,-17.82618 z m 257.75977,15.92969 c 2.20562,2.66537 4.3461,5.32827 6.62109,7.99805 3.9767,4.66678 8.02813,9.34558 11.97461,13.98828 -0.99615,6.65305 -2.07102,13.67872 -2.89258,19.78906 -1.57014,11.67797 -2.66637,22.12407 -2.57617,30.73828 0.0902,8.61422 0.88761,15.75156 5.83985,20.58399 2.47612,2.41621 6.14856,3.66842 9.74609,3.44922 3.59753,-0.2192 7.20745,-1.56231 11.22461,-3.77344 0.31097,-0.17116 0.67185,-0.44074 0.98828,-0.62305 -3.79567,3.66433 -8.98869,7.30567 -16.37695,10.81641 -12.17041,5.7831 -29.36638,6.00331 -49.33399,1.30273 -6.80128,-1.60109 -13.97903,-3.94092 -21.28711,-6.58984 9.29854,-14.87086 18.34368,-31.24802 26.40235,-48.31055 7.67326,-16.2465 14.39443,-32.97367 19.66992,-49.36914 z m -281.95117,8.51758 c 1.87309,2.11181 3.63009,3.93274 5.57226,6.2207 1.80929,2.13143 2.49266,3.26772 3.67188,4.85352 -3.67554,-1.70297 -8.50129,-4.35941 -13.81836,-7.43164 1.50674,-1.13339 3.03683,-2.3745 4.57422,-3.64258 z m 309.1289,23.9082 c 8.49639,10.53565 15.80481,20.72064 19.38086,29.88086 1.58872,4.06957 2.49023,7.83004 2.62891,11.38672 -5.64306,4.79767 -10.40994,8.30449 -14.07227,10.32031 -3.22458,1.77488 -5.63848,2.46723 -7.00976,2.55078 -1.37129,0.0836 -1.61201,-0.0939 -2.1543,-0.62304 -1.08458,-1.05834 -2.74402,-5.87479 -2.82422,-13.53321 -0.0802,-7.65841 0.9407,-17.80515 2.48633,-29.30078 0.43794,-3.25715 1.05911,-7.22565 1.56445,-10.68164 z m -192.38086,4.96289 c 5.15364,4.33918 10.43454,8.57984 15.83008,12.72657 -1.52567,6.38831 -2.91439,12.61016 -4.15234,18.61328 -4.34613,-10.8348 -8.30934,-21.23389 -11.80274,-31.08985 0.0419,-0.0851 0.0831,-0.16476 0.125,-0.25 z m 24.61133,19.26758 c 6.88254,5.036 13.87869,9.85536 20.97071,14.46289 -6.28982,16.29513 -11.69391,28.93396 -16.37891,38.78516 -3.84998,-8.51969 -7.14727,-16.43055 -10.5332,-24.43946 1.5654,-8.91579 3.58956,-18.64402 5.9414,-28.80859 z m 29.58008,20.01367 c 5.35792,3.30681 10.73916,6.50525 16.12305,9.50196 11.27008,6.27299 22.52542,11.7769 33.55859,16.39843 -7.78252,11.61168 -15.57917,22.21195 -22.90039,30.3418 -9.02441,10.02117 -17.48274,16.78633 -23.30664,19.11914 -2.91195,1.1664 -4.92269,1.22148 -6.24609,0.80274 -1.32341,-0.41874 -2.51485,-1.29514 -3.8125,-3.93555 -4.6852,-9.53326 -8.76406,-18.41713 -12.92969,-27.39453 0.42801,-0.83592 0.77462,-1.34436 1.2168,-2.23242 5.17195,-10.38733 11.26158,-24.47717 18.29687,-42.60157 z m -38.3457,27.57813 c 2.44653,5.54474 4.95533,11.15413 7.60742,16.92187 -3.21522,5.79978 -6.07504,10.3581 -7.95508,12.38868 -0.15202,0.16419 -0.0784,0.0575 -0.21875,0.19335 -0.40302,-1.66144 -0.87121,-4.07452 -0.93945,-7.56835 -0.10885,-5.57241 0.43651,-13.16763 1.50586,-21.93555 z"
       id="path6918"
       inkscape:connector-curvature="0" />
    <g
       id="g6936"
       transform="translate(-2.5861452,-2.3653126)">
      <g
         transform="translate(1.6741241,170.88453)"
         id="text6793"
         style="font-style:normal;font-variant:normal;font-weight:500;font-stretch:normal;font-size:40px;line-height:1000%;font-family:'Press Start 2P';-inkscape-font-specification:'Press Start 2P, Medium';text-align:start;letter-spacing:0px;word-spacing:0px;writing-mode:lr-tb;text-anchor:start;fill:#550044;fill-opacity:1;stroke:none;stroke-width:1px;stroke-linecap:butt;stroke-linejoin:miter;stroke-opacity:1">
        <path
           inkscape:connector-curvature="0"
           id="path6798"
           style="fill:#550044"
           d="m 147.87312,340.29657 0,-2.5 12.5,0 12.5,0 0,2.5 0,2.5 -10,0 -10,0 0,2.5 0,2.5 -2.5,0 -2.5,0 0,7.5 0,7.5 2.5,0 2.5,0 0,2.5 0,2.5 5,0 5,0 0,-5 0,-5 -2.5,0 -2.5,0 0,-2.5 0,-2.5 7.5,0 7.5,0 0,10 0,10 -12.5,0 -12.5,0 0,-2.5 0,-2.5 -2.5,0 -2.5,0 0,-2.5 0,-2.5 -2.5,0 -2.5,0 0,-7.5 0,-7.5 2.5,0 2.5,0 0,-2.5 0,-2.5 2.5,0 2.5,0 0,-2.5 z" />
        <path
           inkscape:connector-curvature="0"
           id="path6800"
           style="fill:#550044"
           d="m 182.87312,350.29657 0,-2.5 12.5,0 12.5,0 0,2.5 0,2.5 2.5,0 2.5,0 0,10 0,10 -15,0 -15,0 0,-2.5 0,-2.5 -2.5,0 -2.5,0 0,-2.5 0,-2.5 2.5,0 2.5,0 0,-2.5 0,-2.5 10,0 10,0 0,-2.5 0,-2.5 -10,0 -10,0 0,-2.5 z m 20,15 0,-2.5 -7.5,0 -7.5,0 0,2.5 0,2.5 7.5,0 7.5,0 0,-2.5 z" />
        <path
           inkscape:connector-curvature="0"
           id="path6802"
           style="fill:#550044"
           d="m 217.87312,360.29657 0,-12.5 15,0 15,0 0,2.5 0,2.5 2.5,0 2.5,0 0,10 0,10 -5,0 -5,0 0,-10 0,-10 -2.5,0 -2.5,0 0,10 0,10 -5,0 -5,0 0,-10 0,-10 -2.5,0 -2.5,0 0,10 0,10 -2.5,0 -2.5,0 0,-12.5 z" />
        <path
           inkscape:connector-curvature="0"
           id="path6804"
           style="fill:#550044"
           d="m 262.87312,350.29657 0,-2.5 12.5,0 12.5,0 0,2.5 0,2.5 2.5,0 2.5,0 0,5 0,5 -12.5,0 -12.5,0 0,2.5 0,2.5 10,0 10,0 0,2.5 0,2.5 -12.5,0 -12.5,0 0,-2.5 0,-2.5 -2.5,0 -2.5,0 0,-7.5 0,-7.5 2.5,0 2.5,0 0,-2.5 z m 20,5 0,-2.5 -7.5,0 -7.5,0 0,2.5 0,2.5 7.5,0 7.5,0 0,-2.5 z" />
        <path
           inkscape:connector-curvature="0"
           id="path6806"
           style="fill:#550044"
           d="m 362.87312,352.79657 0,-15 5,0 5,0 0,15 0,15 -2.5,0 -2.5,0 0,2.5 0,2.5 -12.5,0 -12.5,0 0,-2.5 0,-2.5 -2.5,0 -2.5,0 0,-2.5 0,-2.5 5,0 5,0 0,2.5 0,2.5 7.5,0 7.5,0 0,-15 z" />
        <path
           inkscape:connector-curvature="0"
           id="path6808"
           style="fill:#550044"
           d="m 382.87312,350.29657 0,-2.5 12.5,0 12.5,0 0,2.5 0,2.5 2.5,0 2.5,0 0,10 0,10 -15,0 -15,0 0,-2.5 0,-2.5 -2.5,0 -2.5,0 0,-2.5 0,-2.5 2.5,0 2.5,0 0,-2.5 0,-2.5 10,0 10,0 0,-2.5 0,-2.5 -10,0 -10,0 0,-2.5 z m 20,15 0,-2.5 -7.5,0 -7.5,0 0,2.5 0,2.5 7.5,0 7.5,0 0,-2.5 z" />
        <path
           inkscape:connector-curvature="0"
           id="path6810"
           style="fill:#550044"
           d="m 417.87312,360.29657 0,-12.5 15,0 15,0 0,2.5 0,2.5 2.5,0 2.5,0 0,10 0,10 -5,0 -5,0 0,-10 0,-10 -2.5,0 -2.5,0 0,10 0,10 -5,0 -5,0 0,-10 0,-10 -2.5,0 -2.5,0 0,10 0,10 -2.5,0 -2.5,0 0,-12.5 z" />
        <path
           inkscape:connector-curvature="0"
           id="path6812"
           style="fill:#550044"
           d="m 457.87312,360.29657 0,-12.5 15,0 15,0 0,2.5 0,2.5 2.5,0 2.5,0 0,10 0,10 -5,0 -5,0 0,-10 0,-10 -2.5,0 -2.5,0 0,10 0,10 -5,0 -5,0 0,-10 0,-10 -2.5,0 -2.5,0 0,10 0,10 -2.5,0 -2.5,0 0,-12.5 z" />
        <path
           inkscape:connector-curvature="0"
           id="path6814"
           style="fill:#550044"
           d="m 502.87312,350.29657 0,-2.5 12.5,0 12.5,0 0,2.5 0,2.5 2.5,0 2.5,0 0,5 0,5 -12.5,0 -12.5,0 0,2.5 0,2.5 10,0 10,0 0,2.5 0,2.5 -12.5,0 -12.5,0 0,-2.5 0,-2.5 -2.5,0 -2.5,0 0,-7.5 0,-7.5 2.5,0 2.5,0 0,-2.5 z m 20,5 0,-2.5 -7.5,0 -7.5,0 0,2.5 0,2.5 7.5,0 7.5,0 0,-2.5 z" />
        <path
           inkscape:connector-curvature="0"
           id="path6816"
           style="fill:#550044"
           d="m 562.87312,342.79657 0,-5 5,0 5,0 0,17.5 0,17.5 -15,0 -15,0 0,-2.5 0,-2.5 -2.5,0 -2.5,0 0,-7.5 0,-7.5 2.5,0 2.5,0 0,-2.5 0,-2.5 10,0 10,0 0,-5 z m 0,17.5 0,-7.5 -7.5,0 -7.5,0 0,7.5 0,7.5 7.5,0 7.5,0 0,-7.5 z" />
        <path
           inkscape:connector-curvature="0"
           id="path6818"
           style="fill:#550044"
           d="m 587.87312,370.29657 0,-2.5 5,0 5,0 0,2.5 0,2.5 -5,0 -5,0 0,-2.5 z m 0,-20 0,-12.5 7.5,0 7.5,0 0,7.5 0,7.5 -2.5,0 -2.5,0 0,5 0,5 -5,0 -5,0 0,-12.5 z" />
      </g>
      <g
         transform="translate(3.6741241,172.88453)"
         id="text6793-6"
         style="font-style:normal;font-variant:normal;font-weight:500;font-stretch:normal;font-size:40px;line-height:1000%;font-family:'Press Start 2P';-inkscape-font-specification:'Press Start 2P, Medium';text-align:start;letter-spacing:0px;word-spacing:0px;writing-mode:lr-tb;text-anchor:start;fill:#ff5599;fill-opacity:1;stroke:none;stroke-width:1px;stroke-linecap:butt;stroke-linejoin:miter;stroke-opacity:1">
        <path
           inkscape:connector-curvature="0"
           id="path6798-9"
           style="fill:#ff5599"
           d="m 147.87312,340.29657 0,-2.5 12.5,0 12.5,0 0,2.5 0,2.5 -10,0 -10,0 0,2.5 0,2.5 -2.5,0 -2.5,0 0,7.5 0,7.5 2.5,0 2.5,0 0,2.5 0,2.5 5,0 5,0 0,-5 0,-5 -2.5,0 -2.5,0 0,-2.5 0,-2.5 7.5,0 7.5,0 0,10 0,10 -12.5,0 -12.5,0 0,-2.5 0,-2.5 -2.5,0 -2.5,0 0,-2.5 0,-2.5 -2.5,0 -2.5,0 0,-7.5 0,-7.5 2.5,0 2.5,0 0,-2.5 0,-2.5 2.5,0 2.5,0 0,-2.5 z" />
        <path
           inkscape:connector-curvature="0"
           id="path6800-1"
           style="fill:#ff5599"
           d="m 182.87312,350.29657 0,-2.5 12.5,0 12.5,0 0,2.5 0,2.5 2.5,0 2.5,0 0,10 0,10 -15,0 -15,0 0,-2.5 0,-2.5 -2.5,0 -2.5,0 0,-2.5 0,-2.5 2.5,0 2.5,0 0,-2.5 0,-2.5 10,0 10,0 0,-2.5 0,-2.5 -10,0 -10,0 0,-2.5 z m 20,15 0,-2.5 -7.5,0 -7.5,0 0,2.5 0,2.5 7.5,0 7.5,0 0,-2.5 z" />
        <path
           inkscape:connector-curvature="0"
           id="path6802-0"
           style="fill:#ff5599"
           d="m 217.87312,360.29657 0,-12.5 15,0 15,0 0,2.5 0,2.5 2.5,0 2.5,0 0,10 0,10 -5,0 -5,0 0,-10 0,-10 -2.5,0 -2.5,0 0,10 0,10 -5,0 -5,0 0,-10 0,-10 -2.5,0 -2.5,0 0,10 0,10 -2.5,0 -2.5,0 0,-12.5 z" />
        <path
           inkscape:connector-curvature="0"
           id="path6804-0"
           style="fill:#ff5599"
           d="m 262.87312,350.29657 0,-2.5 12.5,0 12.5,0 0,2.5 0,2.5 2.5,0 2.5,0 0,5 0,5 -12.5,0 -12.5,0 0,2.5 0,2.5 10,0 10,0 0,2.5 0,2.5 -12.5,0 -12.5,0 0,-2.5 0,-2.5 -2.5,0 -2.5,0 0,-7.5 0,-7.5 2.5,0 2.5,0 0,-2.5 z m 20,5 0,-2.5 -7.5,0 -7.5,0 0,2.5 0,2.5 7.5,0 7.5,0 0,-2.5 z" />
        <path
           inkscape:connector-curvature="0"
           id="path6806-5"
           style="fill:#ff5599"
           d="m 362.87312,352.79657 0,-15 5,0 5,0 0,15 0,15 -2.5,0 -2.5,0 0,2.5 0,2.5 -12.5,0 -12.5,0 0,-2.5 0,-2.5 -2.5,0 -2.5,0 0,-2.5 0,-2.5 5,0 5,0 0,2.5 0,2.5 7.5,0 7.5,0 0,-15 z" />
        <path
           inkscape:connector-curvature="0"
           id="path6808-8"
           style="fill:#ff5599"
           d="m 382.87312,350.29657 0,-2.5 12.5,0 12.5,0 0,2.5 0,2.5 2.5,0 2.5,0 0,10 0,10 -15,0 -15,0 0,-2.5 0,-2.5 -2.5,0 -2.5,0 0,-2.5 0,-2.5 2.5,0 2.5,0 0,-2.5 0,-2.5 10,0 10,0 0,-2.5 0,-2.5 -10,0 -10,0 0,-2.5 z m 20,15 0,-2.5 -7.5,0 -7.5,0 0,2.5 0,2.5 7.5,0 7.5,0 0,-2.5 z" />
        <path
           inkscape:connector-curvature="0"
           id="path6810-5"
           style="fill:#ff5599"
           d="m 417.87312,360.29657 0,-12.5 15,0 15,0 0,2.5 0,2.5 2.5,0 2.5,0 0,10 0,10 -5,0 -5,0 0,-10 0,-10 -2.5,0 -2.5,0 0,10 0,10 -5,0 -5,0 0,-10 0,-10 -2.5,0 -2.5,0 0,10 0,10 -2.5,0 -2.5,0 0,-12.5 z" />
        <path
           inkscape:connector-curvature="0"
           id="path6812-7"
           style="fill:#ff5599"
           d="m 457.87312,360.29657 0,-12.5 15,0 15,0 0,2.5 0,2.5 2.5,0 2.5,0 0,10 0,10 -5,0 -5,0 0,-10 0,-10 -2.5,0 -2.5,0 0,10 0,10 -5,0 -5,0 0,-10 0,-10 -2.5,0 -2.5,0 0,10 0,10 -2.5,0 -2.5,0 0,-12.5 z" />
        <path
           inkscape:connector-curvature="0"
           id="path6814-9"
           style="fill:#ff5599"
           d="m 502.87312,350.29657 0,-2.5 12.5,0 12.5,0 0,2.5 0,2.5 2.5,0 2.5,0 0,5 0,5 -12.5,0 -12.5,0 0,2.5 0,2.5 10,0 10,0 0,2.5 0,2.5 -12.5,0 -12.5,0 0,-2.5 0,-2.5 -2.5,0 -2.5,0 0,-7.5 0,-7.5 2.5,0 2.5,0 0,-2.5 z m 20,5 0,-2.5 -7.5,0 -7.5,0 0,2.5 0,2.5 7.5,0 7.5,0 0,-2.5 z" />
        <path
           inkscape:connector-curvature="0"
           id="path6816-6"
           style="fill:#ff5599"
           d="m 562.87312,342.79657 0,-5 5,0 5,0 0,17.5 0,17.5 -15,0 -15,0 0,-2.5 0,-2.5 -2.5,0 -2.5,0 0,-7.5 0,-7.5 2.5,0 2.5,0 0,-2.5 0,-2.5 10,0 10,0 0,-5 z m 0,17.5 0,-7.5 -7.5,0 -7.5,0 0,7.5 0,7.5 7.5,0 7.5,0 0,-7.5 z" />
        <path
           inkscape:connector-curvature="0"
           id="path6818-9"
           style="fill:#ff5599"
           d="m 587.87312,370.29657 0,-2.5 5,0 5,0 0,2.5 0,2.5 -5,0 -5,0 0,-2.5 z m 0,-20 0,-12.5 7.5,0 7.5,0 0,7.5 0,7.5 -2.5,0 -2.5,0 0,5 0,5 -5,0 -5,0 0,-12.5 z" />
      </g>
      <g
         transform="translate(6.8464145,175.61516)"
         id="text6793-6-4"
         style="font-style:normal;font-variant:normal;font-weight:500;font-stretch:normal;font-size:40px;line-height:1000%;font-family:'Press Start 2P';-inkscape-font-specification:'Press Start 2P, Medium';text-align:start;letter-spacing:0px;word-spacing:0px;writing-mode:lr-tb;text-anchor:start;fill:#ffaacc;fill-opacity:1;stroke:none;stroke-width:1px;stroke-linecap:butt;stroke-linejoin:miter;stroke-opacity:1">
        <path
           inkscape:connector-curvature="0"
           id="path6798-9-2"
           style="fill:#ffaacc"
           d="m 147.87312,340.29657 0,-2.5 12.5,0 12.5,0 0,2.5 0,2.5 -10,0 -10,0 0,2.5 0,2.5 -2.5,0 -2.5,0 0,7.5 0,7.5 2.5,0 2.5,0 0,2.5 0,2.5 5,0 5,0 0,-5 0,-5 -2.5,0 -2.5,0 0,-2.5 0,-2.5 7.5,0 7.5,0 0,10 0,10 -12.5,0 -12.5,0 0,-2.5 0,-2.5 -2.5,0 -2.5,0 0,-2.5 0,-2.5 -2.5,0 -2.5,0 0,-7.5 0,-7.5 2.5,0 2.5,0 0,-2.5 0,-2.5 2.5,0 2.5,0 0,-2.5 z" />
        <path
           inkscape:connector-curvature="0"
           id="path6800-1-9"
           style="fill:#ffaacc"
           d="m 182.87312,350.29657 0,-2.5 12.5,0 12.5,0 0,2.5 0,2.5 2.5,0 2.5,0 0,10 0,10 -15,0 -15,0 0,-2.5 0,-2.5 -2.5,0 -2.5,0 0,-2.5 0,-2.5 2.5,0 2.5,0 0,-2.5 0,-2.5 10,0 10,0 0,-2.5 0,-2.5 -10,0 -10,0 0,-2.5 z m 20,15 0,-2.5 -7.5,0 -7.5,0 0,2.5 0,2.5 7.5,0 7.5,0 0,-2.5 z" />
        <path
           inkscape:connector-curvature="0"
           id="path6802-0-6"
           style="fill:#ffaacc"
           d="m 217.87312,360.29657 0,-12.5 15,0 15,0 0,2.5 0,2.5 2.5,0 2.5,0 0,10 0,10 -5,0 -5,0 0,-10 0,-10 -2.5,0 -2.5,0 0,10 0,10 -5,0 -5,0 0,-10 0,-10 -2.5,0 -2.5,0 0,10 0,10 -2.5,0 -2.5,0 0,-12.5 z" />
        <path
           inkscape:connector-curvature="0"
           id="path6804-0-9"
           style="fill:#ffaacc"
           d="m 262.87312,350.29657 0,-2.5 12.5,0 12.5,0 0,2.5 0,2.5 2.5,0 2.5,0 0,5 0,5 -12.5,0 -12.5,0 0,2.5 0,2.5 10,0 10,0 0,2.5 0,2.5 -12.5,0 -12.5,0 0,-2.5 0,-2.5 -2.5,0 -2.5,0 0,-7.5 0,-7.5 2.5,0 2.5,0 0,-2.5 z m 20,5 0,-2.5 -7.5,0 -7.5,0 0,2.5 0,2.5 7.5,0 7.5,0 0,-2.5 z" />
        <path
           inkscape:connector-curvature="0"
           id="path6806-5-9"
           style="fill:#ffaacc"
           d="m 362.87312,352.79657 0,-15 5,0 5,0 0,15 0,15 -2.5,0 -2.5,0 0,2.5 0,2.5 -12.5,0 -12.5,0 0,-2.5 0,-2.5 -2.5,0 -2.5,0 0,-2.5 0,-2.5 5,0 5,0 0,2.5 0,2.5 7.5,0 7.5,0 0,-15 z" />
        <path
           inkscape:connector-curvature="0"
           id="path6808-8-9"
           style="fill:#ffaacc"
           d="m 382.87312,350.29657 0,-2.5 12.5,0 12.5,0 0,2.5 0,2.5 2.5,0 2.5,0 0,10 0,10 -15,0 -15,0 0,-2.5 0,-2.5 -2.5,0 -2.5,0 0,-2.5 0,-2.5 2.5,0 2.5,0 0,-2.5 0,-2.5 10,0 10,0 0,-2.5 0,-2.5 -10,0 -10,0 0,-2.5 z m 20,15 0,-2.5 -7.5,0 -7.5,0 0,2.5 0,2.5 7.5,0 7.5,0 0,-2.5 z" />
        <path
           inkscape:connector-curvature="0"
           id="path6810-5-2"
           style="fill:#ffaacc"
           d="m 417.87312,360.29657 0,-12.5 15,0 15,0 0,2.5 0,2.5 2.5,0 2.5,0 0,10 0,10 -5,0 -5,0 0,-10 0,-10 -2.5,0 -2.5,0 0,10 0,10 -5,0 -5,0 0,-10 0,-10 -2.5,0 -2.5,0 0,10 0,10 -2.5,0 -2.5,0 0,-12.5 z" />
        <path
           inkscape:connector-curvature="0"
           id="path6812-7-9"
           style="fill:#ffaacc"
           d="m 457.87312,360.29657 0,-12.5 15,0 15,0 0,2.5 0,2.5 2.5,0 2.5,0 0,10 0,10 -5,0 -5,0 0,-10 0,-10 -2.5,0 -2.5,0 0,10 0,10 -5,0 -5,0 0,-10 0,-10 -2.5,0 -2.5,0 0,10 0,10 -2.5,0 -2.5,0 0,-12.5 z" />
        <path
           inkscape:connector-curvature="0"
           id="path6814-9-2"
           style="fill:#ffaacc"
           d="m 502.87312,350.29657 0,-2.5 12.5,0 12.5,0 0,2.5 0,2.5 2.5,0 2.5,0 0,5 0,5 -12.5,0 -12.5,0 0,2.5 0,2.5 10,0 10,0 0,2.5 0,2.5 -12.5,0 -12.5,0 0,-2.5 0,-2.5 -2.5,0 -2.5,0 0,-7.5 0,-7.5 2.5,0 2.5,0 0,-2.5 z m 20,5 0,-2.5 -7.5,0 -7.5,0 0,2.5 0,2.5 7.5,0 7.5,0 0,-2.5 z" />
        <path
           inkscape:connector-curvature="0"
           id="path6816-6-0"
           style="fill:#ffaacc"
           d="m 562.87312,342.79657 0,-5 5,0 5,0 0,17.5 0,17.5 -15,0 -15,0 0,-2.5 0,-2.5 -2.5,0 -2.5,0 0,-7.5 0,-7.5 2.5,0 2.5,0 0,-2.5 0,-2.5 10,0 10,0 0,-5 z m 0,17.5 0,-7.5 -7.5,0 -7.5,0 0,7.5 0,7.5 7.5,0 7.5,0 0,-7.5 z" />
        <path
           inkscape:connector-curvature="0"
           id="path6818-9-4"
           style="fill:#ffaacc"
           d="m 587.87312,370.29657 0,-2.5 5,0 5,0 0,2.5 0,2.5 -5,0 -5,0 0,-2.5 z m 0,-20 0,-12.5 7.5,0 7.5,0 0,7.5 0,7.5 -2.5,0 -2.5,0 0,5 0,5 -5,0 -5,0 0,-12.5 z" />
      </g>
    </g>
  </g>
</svg>
