<?xml version="1.0" encoding="UTF-8" standalone="no"?>
<!-- Created with Inkscape (http://www.inkscape.org/) -->

<svg
   xmlns:dc="http://purl.org/dc/elements/1.1/"
   xmlns:cc="http://creativecommons.org/ns#"
   xmlns:rdf="http://www.w3.org/1999/02/22-rdf-syntax-ns#"
   xmlns:svg="http://www.w3.org/2000/svg"
   xmlns="http://www.w3.org/2000/svg"
   xmlns:sodipodi="http://sodipodi.sourceforge.net/DTD/sodipodi-0.dtd"
   xmlns:inkscape="http://www.inkscape.org/namespaces/inkscape"
   width="210mm"
   height="297mm"
   viewBox="0 0 744.09448819 1052.3622047"
   id="svg2"
   version="1.1"
   inkscape:version="0.91 r13725"
   sodipodi:docname="gameover.svg">
  <defs
     id="defs4" />
  <sodipodi:namedview
     id="base"
     pagecolor="#ffffff"
     bordercolor="#666666"
     borderopacity="1.0"
     inkscape:pageopacity="0.0"
     inkscape:pageshadow="2"
     inkscape:zoom="1.8155519"
     inkscape:cx="392.09011"
     inkscape:cy="520.33014"
     inkscape:document-units="px"
     inkscape:current-layer="layer1"
     showgrid="false"
     inkscape:window-width="1920"
     inkscape:window-height="1056"
     inkscape:window-x="0"
     inkscape:window-y="24"
     inkscape:window-maximized="1" />
  <metadata
     id="metadata7">
    <rdf:RDF>
      <cc:Work
         rdf:about="">
        <dc:format>image/svg+xml</dc:format>
        <dc:type
           rdf:resource="http://purl.org/dc/dcmitype/StillImage" />
        <dc:title></dc:title>
      </cc:Work>
    </rdf:RDF>
  </metadata>
  <g
     inkscape:label="Layer 1"
     inkscape:groupmode="layer"
     id="layer1">
    <path
       style="opacity:1;fill:#550044;fill-opacity:1;fill-rule:evenodd;stroke:none;stroke-width:2.9000001;stroke-miterlimit:4;stroke-dasharray:none;stroke-opacity:1"
       id="path6145-9"
       d="M 552.40932,598.0127 C 353.25979,632.94079 404.95254,576.81153 359.50452,527.14853 319.28016,482.05978 199.83371,472.0184 144.46604,476.90576 c 51.35924,-21.88837 184.04272,-9.3509 226.73159,40.07079 44.28139,65.05437 -0.72539,87.5482 181.21169,81.03615 z"
       inkscape:connector-curvature="0"
       sodipodi:nodetypes="ccccc" />
    <path
       style="opacity:1;fill:#ff55dd;fill-opacity:1;fill-rule:evenodd;stroke:none;stroke-width:2.9000001;stroke-miterlimit:4;stroke-dasharray:none;stroke-opacity:1"
       id="path6145"
       d="M 555.12418,595.2007 C 355.97465,630.12879 407.6674,573.99953 362.21938,524.33653 321.99502,479.24778 202.54857,469.2064 147.1809,474.09376 c 51.35924,-21.88837 184.04272,-9.3509 226.73159,40.07079 44.28139,65.05437 -0.72539,87.5482 181.21169,81.03615 z"
       inkscape:connector-curvature="0"
       sodipodi:nodetypes="ccccc" />
    <flowRoot
       xml:space="preserve"
       id="flowRoot4148"
       style="fill:black;stroke:none;stroke-opacity:1;stroke-width:1px;stroke-linejoin:miter;stroke-linecap:butt;fill-opacity:1;font-family:sans-serif;font-style:normal;font-weight:normal;font-size:40px;line-height:1000%;letter-spacing:0px;word-spacing:0px"><flowRegion
         id="flowRegion4150"><rect
           id="rect4152"
           width="204.86232"
           height="64.652367"
           x="178.37822"
           y="304.57581" /></flowRegion><flowPara
         id="flowPara4154"></flowPara></flowRoot>    <path
       style="fill:#ff7f2a;fill-opacity:1;stroke:none;stroke-width:3.7;stroke-linecap:butt;stroke-linejoin:round;stroke-opacity:1;stroke-miterlimit:4;stroke-dasharray:none"
       d="m 360.65115,521.90123 -22.19991,-25.31568 23.36833,13.63152 8.95786,-31.15777 6.23155,35.44196 23.7578,-20.64202 -11.68417,28.04199 11.29469,5.06314 -13.24205,3.89472 4.67367,19.08413 -8.56839,-12.85258 -16.7473,24.53674 0,-24.53674 -31.93671,-1.55789 z"
       id="path6162"
       inkscape:connector-curvature="0" />
    <path
       inkscape:connector-curvature="0"
       id="path6004"
       style="font-style:normal;font-variant:normal;font-weight:500;font-stretch:normal;font-size:medium;line-height:1000%;font-family:'Press Start 2P';-inkscape-font-specification:'Press Start 2P, Medium';text-align:start;letter-spacing:0px;word-spacing:0px;writing-mode:lr-tb;text-anchor:start;fill:#550044;fill-opacity:1;stroke:none;stroke-width:1px;stroke-linecap:butt;stroke-linejoin:miter;stroke-opacity:1"
       d="m 174.54724,497.1811 0,-2.5 12.5,0 12.5,0 0,2.5 0,2.5 -10,0 -10,0 0,2.5 0,2.5 -2.5,0 -2.5,0 0,7.5 0,7.5 2.5,0 2.5,0 0,2.5 0,2.5 5,0 5,0 0,-5 0,-5 -2.5,0 -2.5,0 0,-2.5 0,-2.5 7.5,0 7.5,0 0,10 0,10 -12.5,0 -12.5,0 0,-2.5 0,-2.5 -2.5,0 -2.5,0 0,-2.5 0,-2.5 -2.5,0 -2.5,0 0,-7.5 0,-7.5 2.5,0 2.5,0 0,-2.5 0,-2.5 2.5,0 2.5,0 0,-2.5 z" />
    <path
       inkscape:connector-curvature="0"
       id="path6006"
       style="font-style:normal;font-variant:normal;font-weight:500;font-stretch:normal;font-size:medium;line-height:1000%;font-family:'Press Start 2P';-inkscape-font-specification:'Press Start 2P, Medium';text-align:start;letter-spacing:0px;word-spacing:0px;writing-mode:lr-tb;text-anchor:start;fill:#550044;fill-opacity:1;stroke:none;stroke-width:1px;stroke-linecap:butt;stroke-linejoin:miter;stroke-opacity:1"
       d="m 209.54724,507.1811 0,-2.5 12.5,0 12.5,0 0,2.5 0,2.5 2.5,0 2.5,0 0,10 0,10 -15,0 -15,0 0,-2.5 0,-2.5 -2.5,0 -2.5,0 0,-2.5 0,-2.5 2.5,0 2.5,0 0,-2.5 0,-2.5 10,0 10,0 0,-2.5 0,-2.5 -10,0 -10,0 0,-2.5 z m 20,15 0,-2.5 -7.5,0 -7.5,0 0,2.5 0,2.5 7.5,0 7.5,0 0,-2.5 z" />
    <path
       inkscape:connector-curvature="0"
       id="path6008"
       style="font-style:normal;font-variant:normal;font-weight:500;font-stretch:normal;font-size:medium;line-height:1000%;font-family:'Press Start 2P';-inkscape-font-specification:'Press Start 2P, Medium';text-align:start;letter-spacing:0px;word-spacing:0px;writing-mode:lr-tb;text-anchor:start;fill:#550044;fill-opacity:1;stroke:none;stroke-width:1px;stroke-linecap:butt;stroke-linejoin:miter;stroke-opacity:1"
       d="m 244.54724,517.1811 0,-12.5 15,0 15,0 0,2.5 0,2.5 2.5,0 2.5,0 0,10 0,10 -5,0 -5,0 0,-10 0,-10 -2.5,0 -2.5,0 0,10 0,10 -5,0 -5,0 0,-10 0,-10 -2.5,0 -2.5,0 0,10 0,10 -2.5,0 -2.5,0 0,-12.5 z" />
    <path
       inkscape:connector-curvature="0"
       id="path6010"
       style="font-style:normal;font-variant:normal;font-weight:500;font-stretch:normal;font-size:medium;line-height:1000%;font-family:'Press Start 2P';-inkscape-font-specification:'Press Start 2P, Medium';text-align:start;letter-spacing:0px;word-spacing:0px;writing-mode:lr-tb;text-anchor:start;fill:#550044;fill-opacity:1;stroke:none;stroke-width:1px;stroke-linecap:butt;stroke-linejoin:miter;stroke-opacity:1"
       d="m 289.54724,507.1811 0,-2.5 12.5,0 12.5,0 0,2.5 0,2.5 2.5,0 2.5,0 0,5 0,5 -12.5,0 -12.5,0 0,2.5 0,2.5 10,0 10,0 0,2.5 0,2.5 -12.5,0 -12.5,0 0,-2.5 0,-2.5 -2.5,0 -2.5,0 0,-7.5 0,-7.5 2.5,0 2.5,0 0,-2.5 z m 20,5 0,-2.5 -7.5,0 -7.5,0 0,2.5 0,2.5 7.5,0 7.5,0 0,-2.5 z" />
    <path
       inkscape:connector-curvature="0"
       id="path6012"
       style="font-style:normal;font-variant:normal;font-weight:500;font-stretch:normal;font-size:medium;line-height:1000%;font-family:'Press Start 2P';-inkscape-font-specification:'Press Start 2P, Medium';text-align:start;letter-spacing:0px;word-spacing:0px;writing-mode:lr-tb;text-anchor:start;fill:#550044;fill-opacity:1;stroke:none;stroke-width:1px;stroke-linecap:butt;stroke-linejoin:miter;stroke-opacity:1"
       d="m 421.54724,533.1811 0,-2.5 12.5,0 12.5,0 0,2.5 0,2.5 2.5,0 2.5,0 0,12.5 0,12.5 -2.5,0 -2.5,0 0,2.5 0,2.5 -12.5,0 -12.5,0 0,-2.5 0,-2.5 -2.5,0 -2.5,0 0,-12.5 0,-12.5 2.5,0 2.5,0 0,-2.5 z m 20,15 0,-12.5 -7.5,0 -7.5,0 0,12.5 0,12.5 7.5,0 7.5,0 0,-12.5 z" />
    <path
       inkscape:connector-curvature="0"
       id="path6014"
       style="font-style:normal;font-variant:normal;font-weight:500;font-stretch:normal;font-size:medium;line-height:1000%;font-family:'Press Start 2P';-inkscape-font-specification:'Press Start 2P, Medium';text-align:start;letter-spacing:0px;word-spacing:0px;writing-mode:lr-tb;text-anchor:start;fill:#550044;fill-opacity:1;stroke:none;stroke-width:1px;stroke-linecap:butt;stroke-linejoin:miter;stroke-opacity:1"
       d="m 461.54724,548.1811 0,-7.5 5,0 5,0 0,7.5 0,7.5 5,0 5,0 0,-7.5 0,-7.5 5,0 5,0 0,7.5 0,7.5 -2.5,0 -2.5,0 0,2.5 0,2.5 -2.5,0 -2.5,0 0,2.5 0,2.5 -5,0 -5,0 0,-2.5 0,-2.5 -2.5,0 -2.5,0 0,-2.5 0,-2.5 -2.5,0 -2.5,0 0,-7.5 z" />
    <path
       inkscape:connector-curvature="0"
       id="path6016"
       style="font-style:normal;font-variant:normal;font-weight:500;font-stretch:normal;font-size:medium;line-height:1000%;font-family:'Press Start 2P';-inkscape-font-specification:'Press Start 2P, Medium';text-align:start;letter-spacing:0px;word-spacing:0px;writing-mode:lr-tb;text-anchor:start;fill:#550044;fill-opacity:1;stroke:none;stroke-width:1px;stroke-linecap:butt;stroke-linejoin:miter;stroke-opacity:1"
       d="m 501.54724,543.1811 0,-2.5 12.5,0 12.5,0 0,2.5 0,2.5 2.5,0 2.5,0 0,5 0,5 -12.5,0 -12.5,0 0,2.5 0,2.5 10,0 10,0 0,2.5 0,2.5 -12.5,0 -12.5,0 0,-2.5 0,-2.5 -2.5,0 -2.5,0 0,-7.5 0,-7.5 2.5,0 2.5,0 0,-2.5 z m 20,5 0,-2.5 -7.5,0 -7.5,0 0,2.5 0,2.5 7.5,0 7.5,0 0,-2.5 z" />
    <path
       inkscape:connector-curvature="0"
       id="path6018"
       style="font-style:normal;font-variant:normal;font-weight:500;font-stretch:normal;font-size:medium;line-height:1000%;font-family:'Press Start 2P';-inkscape-font-specification:'Press Start 2P, Medium';text-align:start;letter-spacing:0px;word-spacing:0px;writing-mode:lr-tb;text-anchor:start;fill:#550044;fill-opacity:1;stroke:none;stroke-width:1px;stroke-linecap:butt;stroke-linejoin:miter;stroke-opacity:1"
       d="m 541.54724,553.1811 0,-12.5 5,0 5,0 0,2.5 0,2.5 2.5,0 2.5,0 0,-2.5 0,-2.5 7.5,0 7.5,0 0,2.5 0,2.5 -7.5,0 -7.5,0 0,2.5 0,2.5 -2.5,0 -2.5,0 0,7.5 0,7.5 -5,0 -5,0 0,-12.5 z" />
    <path
       id="path6004-7"
       style="font-style:normal;font-variant:normal;font-weight:500;font-stretch:normal;font-size:medium;line-height:1000%;font-family:'Press Start 2P';-inkscape-font-specification:'Press Start 2P, Medium';text-align:start;letter-spacing:0px;word-spacing:0px;writing-mode:lr-tb;text-anchor:start;fill:#800066;fill-opacity:1;stroke:none;stroke-width:1px;stroke-linecap:butt;stroke-linejoin:miter;stroke-opacity:1"
       d="m 176.54724,499.1811 0,-2.5 12.5,0 12.5,0 0,2.5 0,2.5 -10,0 -10,0 0,2.5 0,2.5 -2.5,0 -2.5,0 0,7.5 0,7.5 2.5,0 2.5,0 0,2.5 0,2.5 5,0 5,0 0,-5 0,-5 -2.5,0 -2.5,0 0,-2.5 0,-2.5 7.5,0 7.5,0 0,10 0,10 -12.5,0 -12.5,0 0,-2.5 0,-2.5 -2.5,0 -2.5,0 0,-2.5 0,-2.5 -2.5,0 -2.5,0 0,-7.5 0,-7.5 2.5,0 2.5,0 0,-2.5 0,-2.5 2.5,0 2.5,0 0,-2.5 z"
       inkscape:connector-curvature="0" />
    <path
       id="path6006-5"
       style="font-style:normal;font-variant:normal;font-weight:500;font-stretch:normal;font-size:medium;line-height:1000%;font-family:'Press Start 2P';-inkscape-font-specification:'Press Start 2P, Medium';text-align:start;letter-spacing:0px;word-spacing:0px;writing-mode:lr-tb;text-anchor:start;fill:#800066;fill-opacity:1;stroke:none;stroke-width:1px;stroke-linecap:butt;stroke-linejoin:miter;stroke-opacity:1"
       d="m 211.54724,509.1811 0,-2.5 12.5,0 12.5,0 0,2.5 0,2.5 2.5,0 2.5,0 0,10 0,10 -15,0 -15,0 0,-2.5 0,-2.5 -2.5,0 -2.5,0 0,-2.5 0,-2.5 2.5,0 2.5,0 0,-2.5 0,-2.5 10,0 10,0 0,-2.5 0,-2.5 -10,0 -10,0 0,-2.5 z m 20,15 0,-2.5 -7.5,0 -7.5,0 0,2.5 0,2.5 7.5,0 7.5,0 0,-2.5 z"
       inkscape:connector-curvature="0" />
    <path
       id="path6008-1"
       style="font-style:normal;font-variant:normal;font-weight:500;font-stretch:normal;font-size:medium;line-height:1000%;font-family:'Press Start 2P';-inkscape-font-specification:'Press Start 2P, Medium';text-align:start;letter-spacing:0px;word-spacing:0px;writing-mode:lr-tb;text-anchor:start;fill:#800066;fill-opacity:1;stroke:none;stroke-width:1px;stroke-linecap:butt;stroke-linejoin:miter;stroke-opacity:1"
       d="m 246.54724,519.1811 0,-12.5 15,0 15,0 0,2.5 0,2.5 2.5,0 2.5,0 0,10 0,10 -5,0 -5,0 0,-10 0,-10 -2.5,0 -2.5,0 0,10 0,10 -5,0 -5,0 0,-10 0,-10 -2.5,0 -2.5,0 0,10 0,10 -2.5,0 -2.5,0 0,-12.5 z"
       inkscape:connector-curvature="0" />
    <path
       id="path6010-9"
       style="font-style:normal;font-variant:normal;font-weight:500;font-stretch:normal;font-size:medium;line-height:1000%;font-family:'Press Start 2P';-inkscape-font-specification:'Press Start 2P, Medium';text-align:start;letter-spacing:0px;word-spacing:0px;writing-mode:lr-tb;text-anchor:start;fill:#800066;fill-opacity:1;stroke:none;stroke-width:1px;stroke-linecap:butt;stroke-linejoin:miter;stroke-opacity:1"
       d="m 291.54724,509.1811 0,-2.5 12.5,0 12.5,0 0,2.5 0,2.5 2.5,0 2.5,0 0,5 0,5 -12.5,0 -12.5,0 0,2.5 0,2.5 10,0 10,0 0,2.5 0,2.5 -12.5,0 -12.5,0 0,-2.5 0,-2.5 -2.5,0 -2.5,0 0,-7.5 0,-7.5 2.5,0 2.5,0 0,-2.5 z m 20,5 0,-2.5 -7.5,0 -7.5,0 0,2.5 0,2.5 7.5,0 7.5,0 0,-2.5 z"
       inkscape:connector-curvature="0" />
    <path
       id="path6012-0"
       style="font-style:normal;font-variant:normal;font-weight:500;font-stretch:normal;font-size:medium;line-height:1000%;font-family:'Press Start 2P';-inkscape-font-specification:'Press Start 2P, Medium';text-align:start;letter-spacing:0px;word-spacing:0px;writing-mode:lr-tb;text-anchor:start;fill:#800066;fill-opacity:1;stroke:none;stroke-width:1px;stroke-linecap:butt;stroke-linejoin:miter;stroke-opacity:1"
       d="m 423.54724,535.1811 0,-2.5 12.5,0 12.5,0 0,2.5 0,2.5 2.5,0 2.5,0 0,12.5 0,12.5 -2.5,0 -2.5,0 0,2.5 0,2.5 -12.5,0 -12.5,0 0,-2.5 0,-2.5 -2.5,0 -2.5,0 0,-12.5 0,-12.5 2.5,0 2.5,0 0,-2.5 z m 20,15 0,-12.5 -7.5,0 -7.5,0 0,12.5 0,12.5 7.5,0 7.5,0 0,-12.5 z"
       inkscape:connector-curvature="0" />
    <path
       id="path6014-0"
       style="font-style:normal;font-variant:normal;font-weight:500;font-stretch:normal;font-size:medium;line-height:1000%;font-family:'Press Start 2P';-inkscape-font-specification:'Press Start 2P, Medium';text-align:start;letter-spacing:0px;word-spacing:0px;writing-mode:lr-tb;text-anchor:start;fill:#800066;fill-opacity:1;stroke:none;stroke-width:1px;stroke-linecap:butt;stroke-linejoin:miter;stroke-opacity:1"
       d="m 463.54724,550.1811 0,-7.5 5,0 5,0 0,7.5 0,7.5 5,0 5,0 0,-7.5 0,-7.5 5,0 5,0 0,7.5 0,7.5 -2.5,0 -2.5,0 0,2.5 0,2.5 -2.5,0 -2.5,0 0,2.5 0,2.5 -5,0 -5,0 0,-2.5 0,-2.5 -2.5,0 -2.5,0 0,-2.5 0,-2.5 -2.5,0 -2.5,0 0,-7.5 z"
       inkscape:connector-curvature="0" />
    <path
       id="path6016-6"
       style="font-style:normal;font-variant:normal;font-weight:500;font-stretch:normal;font-size:medium;line-height:1000%;font-family:'Press Start 2P';-inkscape-font-specification:'Press Start 2P, Medium';text-align:start;letter-spacing:0px;word-spacing:0px;writing-mode:lr-tb;text-anchor:start;fill:#800066;fill-opacity:1;stroke:none;stroke-width:1px;stroke-linecap:butt;stroke-linejoin:miter;stroke-opacity:1"
       d="m 503.54724,545.1811 0,-2.5 12.5,0 12.5,0 0,2.5 0,2.5 2.5,0 2.5,0 0,5 0,5 -12.5,0 -12.5,0 0,2.5 0,2.5 10,0 10,0 0,2.5 0,2.5 -12.5,0 -12.5,0 0,-2.5 0,-2.5 -2.5,0 -2.5,0 0,-7.5 0,-7.5 2.5,0 2.5,0 0,-2.5 z m 20,5 0,-2.5 -7.5,0 -7.5,0 0,2.5 0,2.5 7.5,0 7.5,0 0,-2.5 z"
       inkscape:connector-curvature="0" />
    <path
       id="path6018-2"
       style="font-style:normal;font-variant:normal;font-weight:500;font-stretch:normal;font-size:medium;line-height:1000%;font-family:'Press Start 2P';-inkscape-font-specification:'Press Start 2P, Medium';text-align:start;letter-spacing:0px;word-spacing:0px;writing-mode:lr-tb;text-anchor:start;fill:#800066;fill-opacity:1;stroke:none;stroke-width:1px;stroke-linecap:butt;stroke-linejoin:miter;stroke-opacity:1"
       d="m 543.54724,555.1811 0,-12.5 5,0 5,0 0,2.5 0,2.5 2.5,0 2.5,0 0,-2.5 0,-2.5 7.5,0 7.5,0 0,2.5 0,2.5 -7.5,0 -7.5,0 0,2.5 0,2.5 -2.5,0 -2.5,0 0,7.5 0,7.5 -5,0 -5,0 0,-12.5 z"
       inkscape:connector-curvature="0" />
    <path
       id="path6004-7-5"
       style="font-style:normal;font-variant:normal;font-weight:500;font-stretch:normal;font-size:medium;line-height:1000%;font-family:'Press Start 2P';-inkscape-font-specification:'Press Start 2P, Medium';text-align:start;letter-spacing:0px;word-spacing:0px;writing-mode:lr-tb;text-anchor:start;fill:#aa0088;fill-opacity:1;stroke:none;stroke-width:1px;stroke-linecap:butt;stroke-linejoin:miter;stroke-opacity:1"
       d="m 178.54724,501.1811 0,-2.5 12.5,0 12.5,0 0,2.5 0,2.5 -10,0 -10,0 0,2.5 0,2.5 -2.5,0 -2.5,0 0,7.5 0,7.5 2.5,0 2.5,0 0,2.5 0,2.5 5,0 5,0 0,-5 0,-5 -2.5,0 -2.5,0 0,-2.5 0,-2.5 7.5,0 7.5,0 0,10 0,10 -12.5,0 -12.5,0 0,-2.5 0,-2.5 -2.5,0 -2.5,0 0,-2.5 0,-2.5 -2.5,0 -2.5,0 0,-7.5 0,-7.5 2.5,0 2.5,0 0,-2.5 0,-2.5 2.5,0 2.5,0 0,-2.5 z"
       inkscape:connector-curvature="0" />
    <path
       id="path6006-5-6"
       style="font-style:normal;font-variant:normal;font-weight:500;font-stretch:normal;font-size:medium;line-height:1000%;font-family:'Press Start 2P';-inkscape-font-specification:'Press Start 2P, Medium';text-align:start;letter-spacing:0px;word-spacing:0px;writing-mode:lr-tb;text-anchor:start;fill:#aa0088;fill-opacity:1;stroke:none;stroke-width:1px;stroke-linecap:butt;stroke-linejoin:miter;stroke-opacity:1"
       d="m 213.54724,511.1811 0,-2.5 12.5,0 12.5,0 0,2.5 0,2.5 2.5,0 2.5,0 0,10 0,10 -15,0 -15,0 0,-2.5 0,-2.5 -2.5,0 -2.5,0 0,-2.5 0,-2.5 2.5,0 2.5,0 0,-2.5 0,-2.5 10,0 10,0 0,-2.5 0,-2.5 -10,0 -10,0 0,-2.5 z m 20,15 0,-2.5 -7.5,0 -7.5,0 0,2.5 0,2.5 7.5,0 7.5,0 0,-2.5 z"
       inkscape:connector-curvature="0" />
    <path
       id="path6008-1-8"
       style="font-style:normal;font-variant:normal;font-weight:500;font-stretch:normal;font-size:medium;line-height:1000%;font-family:'Press Start 2P';-inkscape-font-specification:'Press Start 2P, Medium';text-align:start;letter-spacing:0px;word-spacing:0px;writing-mode:lr-tb;text-anchor:start;fill:#aa0088;fill-opacity:1;stroke:none;stroke-width:1px;stroke-linecap:butt;stroke-linejoin:miter;stroke-opacity:1"
       d="m 248.54724,521.1811 0,-12.5 15,0 15,0 0,2.5 0,2.5 2.5,0 2.5,0 0,10 0,10 -5,0 -5,0 0,-10 0,-10 -2.5,0 -2.5,0 0,10 0,10 -5,0 -5,0 0,-10 0,-10 -2.5,0 -2.5,0 0,10 0,10 -2.5,0 -2.5,0 0,-12.5 z"
       inkscape:connector-curvature="0" />
    <path
       id="path6010-9-0"
       style="font-style:normal;font-variant:normal;font-weight:500;font-stretch:normal;font-size:medium;line-height:1000%;font-family:'Press Start 2P';-inkscape-font-specification:'Press Start 2P, Medium';text-align:start;letter-spacing:0px;word-spacing:0px;writing-mode:lr-tb;text-anchor:start;fill:#aa0088;fill-opacity:1;stroke:none;stroke-width:1px;stroke-linecap:butt;stroke-linejoin:miter;stroke-opacity:1"
       d="m 293.54724,511.1811 0,-2.5 12.5,0 12.5,0 0,2.5 0,2.5 2.5,0 2.5,0 0,5 0,5 -12.5,0 -12.5,0 0,2.5 0,2.5 10,0 10,0 0,2.5 0,2.5 -12.5,0 -12.5,0 0,-2.5 0,-2.5 -2.5,0 -2.5,0 0,-7.5 0,-7.5 2.5,0 2.5,0 0,-2.5 z m 20,5 0,-2.5 -7.5,0 -7.5,0 0,2.5 0,2.5 7.5,0 7.5,0 0,-2.5 z"
       inkscape:connector-curvature="0" />
    <path
       id="path6012-0-2"
       style="font-style:normal;font-variant:normal;font-weight:500;font-stretch:normal;font-size:medium;line-height:1000%;font-family:'Press Start 2P';-inkscape-font-specification:'Press Start 2P, Medium';text-align:start;letter-spacing:0px;word-spacing:0px;writing-mode:lr-tb;text-anchor:start;fill:#aa0088;fill-opacity:1;stroke:none;stroke-width:1px;stroke-linecap:butt;stroke-linejoin:miter;stroke-opacity:1"
       d="m 425.54724,537.1811 0,-2.5 12.5,0 12.5,0 0,2.5 0,2.5 2.5,0 2.5,0 0,12.5 0,12.5 -2.5,0 -2.5,0 0,2.5 0,2.5 -12.5,0 -12.5,0 0,-2.5 0,-2.5 -2.5,0 -2.5,0 0,-12.5 0,-12.5 2.5,0 2.5,0 0,-2.5 z m 20,15 0,-12.5 -7.5,0 -7.5,0 0,12.5 0,12.5 7.5,0 7.5,0 0,-12.5 z"
       inkscape:connector-curvature="0" />
    <path
       id="path6014-0-2"
       style="font-style:normal;font-variant:normal;font-weight:500;font-stretch:normal;font-size:medium;line-height:1000%;font-family:'Press Start 2P';-inkscape-font-specification:'Press Start 2P, Medium';text-align:start;letter-spacing:0px;word-spacing:0px;writing-mode:lr-tb;text-anchor:start;fill:#aa0088;fill-opacity:1;stroke:none;stroke-width:1px;stroke-linecap:butt;stroke-linejoin:miter;stroke-opacity:1"
       d="m 465.54724,552.1811 0,-7.5 5,0 5,0 0,7.5 0,7.5 5,0 5,0 0,-7.5 0,-7.5 5,0 5,0 0,7.5 0,7.5 -2.5,0 -2.5,0 0,2.5 0,2.5 -2.5,0 -2.5,0 0,2.5 0,2.5 -5,0 -5,0 0,-2.5 0,-2.5 -2.5,0 -2.5,0 0,-2.5 0,-2.5 -2.5,0 -2.5,0 0,-7.5 z"
       inkscape:connector-curvature="0" />
    <path
       id="path6016-6-3"
       style="font-style:normal;font-variant:normal;font-weight:500;font-stretch:normal;font-size:medium;line-height:1000%;font-family:'Press Start 2P';-inkscape-font-specification:'Press Start 2P, Medium';text-align:start;letter-spacing:0px;word-spacing:0px;writing-mode:lr-tb;text-anchor:start;fill:#aa0088;fill-opacity:1;stroke:none;stroke-width:1px;stroke-linecap:butt;stroke-linejoin:miter;stroke-opacity:1"
       d="m 505.54724,547.1811 0,-2.5 12.5,0 12.5,0 0,2.5 0,2.5 2.5,0 2.5,0 0,5 0,5 -12.5,0 -12.5,0 0,2.5 0,2.5 10,0 10,0 0,2.5 0,2.5 -12.5,0 -12.5,0 0,-2.5 0,-2.5 -2.5,0 -2.5,0 0,-7.5 0,-7.5 2.5,0 2.5,0 0,-2.5 z m 20,5 0,-2.5 -7.5,0 -7.5,0 0,2.5 0,2.5 7.5,0 7.5,0 0,-2.5 z"
       inkscape:connector-curvature="0" />
    <path
       id="path6018-2-2"
       style="font-style:normal;font-variant:normal;font-weight:500;font-stretch:normal;font-size:medium;line-height:1000%;font-family:'Press Start 2P';-inkscape-font-specification:'Press Start 2P, Medium';text-align:start;letter-spacing:0px;word-spacing:0px;writing-mode:lr-tb;text-anchor:start;fill:#aa0088;fill-opacity:1;stroke:none;stroke-width:1px;stroke-linecap:butt;stroke-linejoin:miter;stroke-opacity:1"
       d="m 545.54724,557.1811 0,-12.5 5,0 5,0 0,2.5 0,2.5 2.5,0 2.5,0 0,-2.5 0,-2.5 7.5,0 7.5,0 0,2.5 0,2.5 -7.5,0 -7.5,0 0,2.5 0,2.5 -2.5,0 -2.5,0 0,7.5 0,7.5 -5,0 -5,0 0,-12.5 z"
       inkscape:connector-curvature="0" />
    <path
       id="path6004-7-5-4"
       style="font-style:normal;font-variant:normal;font-weight:500;font-stretch:normal;font-size:medium;line-height:1000%;font-family:'Press Start 2P';-inkscape-font-specification:'Press Start 2P, Medium';text-align:start;letter-spacing:0px;word-spacing:0px;writing-mode:lr-tb;text-anchor:start;fill:#ff55dd;fill-opacity:1;stroke:none;stroke-width:1px;stroke-linecap:butt;stroke-linejoin:miter;stroke-opacity:1"
       d="m 180.74444,502.45295 0,-2.5 12.5,0 12.5,0 0,2.5 0,2.5 -10,0 -10,0 0,2.5 0,2.5 -2.5,0 -2.5,0 0,7.5 0,7.5 2.5,0 2.5,0 0,2.5 0,2.5 5,0 5,0 0,-5 0,-5 -2.5,0 -2.5,0 0,-2.5 0,-2.5 7.5,0 7.5,0 0,10 0,10 -12.5,0 -12.5,0 0,-2.5 0,-2.5 -2.5,0 -2.5,0 0,-2.5 0,-2.5 -2.5,0 -2.5,0 0,-7.5 0,-7.5 2.5,0 2.5,0 0,-2.5 0,-2.5 2.5,0 2.5,0 0,-2.5 z"
       inkscape:connector-curvature="0" />
    <path
       id="path6006-5-6-3"
       style="font-style:normal;font-variant:normal;font-weight:500;font-stretch:normal;font-size:medium;line-height:1000%;font-family:'Press Start 2P';-inkscape-font-specification:'Press Start 2P, Medium';text-align:start;letter-spacing:0px;word-spacing:0px;writing-mode:lr-tb;text-anchor:start;fill:#ff55dd;fill-opacity:1;stroke:none;stroke-width:1px;stroke-linecap:butt;stroke-linejoin:miter;stroke-opacity:1"
       d="m 215.74444,512.45295 0,-2.5 12.5,0 12.5,0 0,2.5 0,2.5 2.5,0 2.5,0 0,10 0,10 -15,0 -15,0 0,-2.5 0,-2.5 -2.5,0 -2.5,0 0,-2.5 0,-2.5 2.5,0 2.5,0 0,-2.5 0,-2.5 10,0 10,0 0,-2.5 0,-2.5 -10,0 -10,0 0,-2.5 z m 20,15 0,-2.5 -7.5,0 -7.5,0 0,2.5 0,2.5 7.5,0 7.5,0 0,-2.5 z"
       inkscape:connector-curvature="0" />
    <path
       id="path6008-1-8-9"
       style="font-style:normal;font-variant:normal;font-weight:500;font-stretch:normal;font-size:medium;line-height:1000%;font-family:'Press Start 2P';-inkscape-font-specification:'Press Start 2P, Medium';text-align:start;letter-spacing:0px;word-spacing:0px;writing-mode:lr-tb;text-anchor:start;fill:#ff55dd;fill-opacity:1;stroke:none;stroke-width:1px;stroke-linecap:butt;stroke-linejoin:miter;stroke-opacity:1"
       d="m 250.74444,522.45295 0,-12.5 15,0 15,0 0,2.5 0,2.5 2.5,0 2.5,0 0,10 0,10 -5,0 -5,0 0,-10 0,-10 -2.5,0 -2.5,0 0,10 0,10 -5,0 -5,0 0,-10 0,-10 -2.5,0 -2.5,0 0,10 0,10 -2.5,0 -2.5,0 0,-12.5 z"
       inkscape:connector-curvature="0" />
    <path
       id="path6010-9-0-6"
       style="font-style:normal;font-variant:normal;font-weight:500;font-stretch:normal;font-size:medium;line-height:1000%;font-family:'Press Start 2P';-inkscape-font-specification:'Press Start 2P, Medium';text-align:start;letter-spacing:0px;word-spacing:0px;writing-mode:lr-tb;text-anchor:start;fill:#ff55dd;fill-opacity:1;stroke:none;stroke-width:1px;stroke-linecap:butt;stroke-linejoin:miter;stroke-opacity:1"
       d="m 295.74444,512.45295 0,-2.5 12.5,0 12.5,0 0,2.5 0,2.5 2.5,0 2.5,0 0,5 0,5 -12.5,0 -12.5,0 0,2.5 0,2.5 10,0 10,0 0,2.5 0,2.5 -12.5,0 -12.5,0 0,-2.5 0,-2.5 -2.5,0 -2.5,0 0,-7.5 0,-7.5 2.5,0 2.5,0 0,-2.5 z m 20,5 0,-2.5 -7.5,0 -7.5,0 0,2.5 0,2.5 7.5,0 7.5,0 0,-2.5 z"
       inkscape:connector-curvature="0" />
    <path
       id="path6012-0-2-8"
       style="font-style:normal;font-variant:normal;font-weight:500;font-stretch:normal;font-size:medium;line-height:1000%;font-family:'Press Start 2P';-inkscape-font-specification:'Press Start 2P, Medium';text-align:start;letter-spacing:0px;word-spacing:0px;writing-mode:lr-tb;text-anchor:start;fill:#ff55dd;fill-opacity:1;stroke:none;stroke-width:1px;stroke-linecap:butt;stroke-linejoin:miter;stroke-opacity:1"
       d="m 427.74444,538.45295 0,-2.5 12.5,0 12.5,0 0,2.5 0,2.5 2.5,0 2.5,0 0,12.5 0,12.5 -2.5,0 -2.5,0 0,2.5 0,2.5 -12.5,0 -12.5,0 0,-2.5 0,-2.5 -2.5,0 -2.5,0 0,-12.5 0,-12.5 2.5,0 2.5,0 0,-2.5 z m 20,15 0,-12.5 -7.5,0 -7.5,0 0,12.5 0,12.5 7.5,0 7.5,0 0,-12.5 z"
       inkscape:connector-curvature="0" />
    <path
       id="path6014-0-2-5"
       style="font-style:normal;font-variant:normal;font-weight:500;font-stretch:normal;font-size:medium;line-height:1000%;font-family:'Press Start 2P';-inkscape-font-specification:'Press Start 2P, Medium';text-align:start;letter-spacing:0px;word-spacing:0px;writing-mode:lr-tb;text-anchor:start;fill:#ff55dd;fill-opacity:1;stroke:none;stroke-width:1px;stroke-linecap:butt;stroke-linejoin:miter;stroke-opacity:1"
       d="m 467.74444,553.45295 0,-7.5 5,0 5,0 0,7.5 0,7.5 5,0 5,0 0,-7.5 0,-7.5 5,0 5,0 0,7.5 0,7.5 -2.5,0 -2.5,0 0,2.5 0,2.5 -2.5,0 -2.5,0 0,2.5 0,2.5 -5,0 -5,0 0,-2.5 0,-2.5 -2.5,0 -2.5,0 0,-2.5 0,-2.5 -2.5,0 -2.5,0 0,-7.5 z"
       inkscape:connector-curvature="0" />
    <path
       id="path6016-6-3-1"
       style="font-style:normal;font-variant:normal;font-weight:500;font-stretch:normal;font-size:medium;line-height:1000%;font-family:'Press Start 2P';-inkscape-font-specification:'Press Start 2P, Medium';text-align:start;letter-spacing:0px;word-spacing:0px;writing-mode:lr-tb;text-anchor:start;fill:#ff55dd;fill-opacity:1;stroke:none;stroke-width:1px;stroke-linecap:butt;stroke-linejoin:miter;stroke-opacity:1"
       d="m 507.74444,548.45295 0,-2.5 12.5,0 12.5,0 0,2.5 0,2.5 2.5,0 2.5,0 0,5 0,5 -12.5,0 -12.5,0 0,2.5 0,2.5 10,0 10,0 0,2.5 0,2.5 -12.5,0 -12.5,0 0,-2.5 0,-2.5 -2.5,0 -2.5,0 0,-7.5 0,-7.5 2.5,0 2.5,0 0,-2.5 z m 20,5 0,-2.5 -7.5,0 -7.5,0 0,2.5 0,2.5 7.5,0 7.5,0 0,-2.5 z"
       inkscape:connector-curvature="0" />
    <path
       id="path6018-2-2-8"
       style="font-style:normal;font-variant:normal;font-weight:500;font-stretch:normal;font-size:medium;line-height:1000%;font-family:'Press Start 2P';-inkscape-font-specification:'Press Start 2P, Medium';text-align:start;letter-spacing:0px;word-spacing:0px;writing-mode:lr-tb;text-anchor:start;fill:#ff55dd;fill-opacity:1;stroke:none;stroke-width:1px;stroke-linecap:butt;stroke-linejoin:miter;stroke-opacity:1"
       d="m 547.74444,558.45295 0,-12.5 5,0 5,0 0,2.5 0,2.5 2.5,0 2.5,0 0,-2.5 0,-2.5 7.5,0 7.5,0 0,2.5 0,2.5 -7.5,0 -7.5,0 0,2.5 0,2.5 -2.5,0 -2.5,0 0,7.5 0,7.5 -5,0 -5,0 0,-12.5 z"
       inkscape:connector-curvature="0" />
    <path
       style="fill:#ffcc00;fill-opacity:1;stroke:none;stroke-width:3.70000005;stroke-linecap:butt;stroke-linejoin:round;stroke-miterlimit:4;stroke-dasharray:none;stroke-opacity:1"
       d="m 363.12488,523.96801 -22.19991,-25.31568 23.36833,13.63152 8.95786,-31.15777 6.23155,35.44196 23.7578,-20.64202 -11.68417,28.04199 11.29469,5.06314 -13.24205,3.89472 4.67367,19.08413 -8.56839,-12.85258 -16.7473,24.53674 0,-24.53674 -31.93671,-1.55789 z"
       id="path6162-1"
       inkscape:connector-curvature="0" />
    <path
       style="fill:#ffff00;fill-opacity:1;stroke:none;stroke-width:3.70000005;stroke-linecap:butt;stroke-linejoin:round;stroke-miterlimit:4;stroke-dasharray:none;stroke-opacity:1"
       d="m 367.53126,525.52977 -22.19991,-25.31568 23.36833,13.63152 8.95786,-31.15777 6.23155,35.44196 23.7578,-20.64202 -11.68417,28.04199 11.29469,5.06314 -13.24205,3.89472 4.67367,19.08413 -8.56839,-12.85258 -16.7473,24.53674 0,-24.53674 -31.93671,-1.55789 z"
       id="path6162-1-6"
       inkscape:connector-curvature="0" />
  </g>
</svg>
