<?xml version="1.0" encoding="UTF-8" standalone="no"?>
<!-- Created with Inkscape (http://www.inkscape.org/) -->

<svg
   xmlns:dc="http://purl.org/dc/elements/1.1/"
   xmlns:cc="http://creativecommons.org/ns#"
   xmlns:rdf="http://www.w3.org/1999/02/22-rdf-syntax-ns#"
   xmlns:svg="http://www.w3.org/2000/svg"
   xmlns="http://www.w3.org/2000/svg"
   xmlns:sodipodi="http://sodipodi.sourceforge.net/DTD/sodipodi-0.dtd"
   xmlns:inkscape="http://www.inkscape.org/namespaces/inkscape"
   width="210mm"
   height="297mm"
   viewBox="0 0 744.09448819 1052.3622047"
   id="svg2"
   version="1.1"
   inkscape:version="0.91 r13725"
   sodipodi:docname="help.svg">
  <defs
     id="defs4" />
  <sodipodi:namedview
     id="base"
     pagecolor="#ffffff"
     bordercolor="#666666"
     borderopacity="1.0"
     inkscape:pageopacity="0.0"
     inkscape:pageshadow="2"
     inkscape:zoom="2.5675781"
     inkscape:cx="345.05827"
     inkscape:cy="446.46177"
     inkscape:document-units="px"
     inkscape:current-layer="layer1"
     showgrid="false"
     inkscape:window-width="1920"
     inkscape:window-height="1056"
     inkscape:window-x="0"
     inkscape:window-y="24"
     inkscape:window-maximized="1" />
  <metadata
     id="metadata7">
    <rdf:RDF>
      <cc:Work
         rdf:about="">
        <dc:format>image/svg+xml</dc:format>
        <dc:type
           rdf:resource="http://purl.org/dc/dcmitype/StillImage" />
        <dc:title></dc:title>
      </cc:Work>
    </rdf:RDF>
  </metadata>
  <g
     inkscape:label="Layer 1"
     inkscape:groupmode="layer"
     id="layer1">
    <rect
       style="opacity:1;fill:#ffd5e5;fill-opacity:1;fill-rule:evenodd;stroke:#ff2a7f;stroke-width:2.9000001;stroke-miterlimit:4;stroke-dasharray:none;stroke-opacity:1"
       id="rect4136"
       width="278.08307"
       height="107.49429"
       x="233.00571"
       y="472.43396"
       ry="27.0744" />
    <flowRoot
       xml:space="preserve"
       id="flowRoot4148"
       style="fill:black;stroke:none;stroke-opacity:1;stroke-width:1px;stroke-linejoin:miter;stroke-linecap:butt;fill-opacity:1;font-family:sans-serif;font-style:normal;font-weight:normal;font-size:40px;line-height:1000%;letter-spacing:0px;word-spacing:0px"><flowRegion
         id="flowRegion4150"><rect
           id="rect4152"
           width="204.86232"
           height="64.652367"
           x="178.37822"
           y="304.57581" /></flowRegion><flowPara
         id="flowPara4154"></flowPara></flowRoot>    <circle
       style="opacity:1;fill:#ff2a7f;fill-opacity:1;fill-rule:evenodd;stroke:none;stroke-width:2.9000001;stroke-miterlimit:4;stroke-dasharray:none;stroke-opacity:1"
       id="path4213"
       cx="260.29916"
       cy="564.12842"
       r="3.7147071" />
    <circle
       style="opacity:1;fill:#ff2a7f;fill-opacity:1;fill-rule:evenodd;stroke:none;stroke-width:2.9000001;stroke-miterlimit:4;stroke-dasharray:none;stroke-opacity:1"
       id="path4225"
       cx="250.35069"
       cy="535.54449"
       r="2.5870283" />
    <circle
       style="opacity:1;fill:#ff2a7f;fill-opacity:1;fill-rule:evenodd;stroke:none;stroke-width:2.9000001;stroke-miterlimit:4;stroke-dasharray:none;stroke-opacity:1"
       id="path4227"
       cx="342.89371"
       cy="486.81317"
       r="1.3266811" />
    <circle
       style="opacity:1;fill:#ff2a7f;fill-opacity:1;fill-rule:evenodd;stroke:none;stroke-width:2.9000001;stroke-miterlimit:4;stroke-dasharray:none;stroke-opacity:1"
       id="path4229"
       cx="374.60922"
       cy="560.92834"
       r="6.1003914" />
    <circle
       style="opacity:1;fill:#ff2a7f;fill-opacity:1;fill-rule:evenodd;stroke:none;stroke-width:2.9000001;stroke-miterlimit:4;stroke-dasharray:none;stroke-opacity:1"
       id="path4231"
       cx="414.06805"
       cy="491.20911"
       r="1.3266811" />
    <circle
       style="opacity:1;fill:#ff2a7f;fill-opacity:1;fill-rule:evenodd;stroke:none;stroke-width:2.9000001;stroke-miterlimit:4;stroke-dasharray:none;stroke-opacity:1"
       id="path4233"
       cx="435.31503"
       cy="495.8299"
       r="5.0413885" />
    <circle
       style="opacity:1;fill:#ff2a7f;fill-opacity:1;fill-rule:evenodd;stroke:none;stroke-width:2.9000001;stroke-miterlimit:4;stroke-dasharray:none;stroke-opacity:1"
       id="path4235"
       cx="262.93246"
       cy="493.79391"
       r="4.2453799" />
    <circle
       style="opacity:1;fill:#ff2a7f;fill-opacity:1;fill-rule:evenodd;stroke:none;stroke-width:2.9000001;stroke-miterlimit:4;stroke-dasharray:none;stroke-opacity:1"
       id="path4239"
       cx="490.67584"
       cy="550.0918"
       r="1.0319157" />
    <circle
       style="opacity:1;fill:#ff2a7f;fill-opacity:1;fill-rule:evenodd;stroke:none;stroke-width:2.9000001;stroke-miterlimit:4;stroke-dasharray:none;stroke-opacity:1"
       id="path4241"
       cx="485.70554"
       cy="563.41125"
       r="4.1276627" />
    <circle
       style="opacity:1;fill:#ff2a7f;fill-opacity:1;fill-rule:evenodd;stroke:none;stroke-width:2.9000001;stroke-miterlimit:4;stroke-dasharray:none;stroke-opacity:1"
       id="path4243"
       cx="335.91223"
       cy="493.06866"
       r="3.0019367" />
    <circle
       style="opacity:1;fill:#ff2a7f;fill-opacity:1;fill-rule:evenodd;stroke:none;stroke-width:2.9000001;stroke-miterlimit:4;stroke-dasharray:none;stroke-opacity:1"
       id="path4229-3"
       cx="251.20949"
       cy="507.88025"
       r="6.1003914" />
    <circle
       style="opacity:1;fill:#ff2a7f;fill-opacity:1;fill-rule:evenodd;stroke:none;stroke-width:2.9000001;stroke-miterlimit:4;stroke-dasharray:none;stroke-opacity:1"
       id="path4231-4"
       cx="469.70334"
       cy="500.48029"
       r="1.3266811" />
    <circle
       style="opacity:1;fill:#ff2a7f;fill-opacity:1;fill-rule:evenodd;stroke:none;stroke-width:2.9000001;stroke-miterlimit:4;stroke-dasharray:none;stroke-opacity:1"
       id="path4231-43"
       cx="474.76648"
       cy="499.70129"
       r="1.3266811" />
    <path
       inkscape:connector-curvature="0"
       id="path5987"
       style="font-style:normal;font-variant:normal;font-weight:500;font-stretch:normal;font-size:medium;line-height:1000%;font-family:'Press Start 2P';-inkscape-font-specification:'Press Start 2P, Medium';text-align:start;letter-spacing:0px;word-spacing:0px;writing-mode:lr-tb;text-anchor:start;fill:#550044;fill-opacity:1;stroke:none;stroke-width:1px;stroke-linecap:butt;stroke-linejoin:miter;stroke-opacity:1"
       d="m 294.54724,523.68109 0,-17.5 5,0 5,0 0,7.5 0,7.5 7.5,0 7.5,0 0,-7.5 0,-7.5 5,0 5,0 0,17.5 0,17.5 -5,0 -5,0 0,-7.5 0,-7.5 -7.5,0 -7.5,0 0,7.5 0,7.5 -5,0 -5,0 0,-17.5 z" />
    <path
       inkscape:connector-curvature="0"
       id="path5989"
       style="font-style:normal;font-variant:normal;font-weight:500;font-stretch:normal;font-size:medium;line-height:1000%;font-family:'Press Start 2P';-inkscape-font-specification:'Press Start 2P, Medium';text-align:start;letter-spacing:0px;word-spacing:0px;writing-mode:lr-tb;text-anchor:start;fill:#550044;fill-opacity:1;stroke:none;stroke-width:1px;stroke-linecap:butt;stroke-linejoin:miter;stroke-opacity:1"
       d="m 339.54724,518.68109 0,-2.5 12.5,0 12.5,0 0,2.5 0,2.5 2.5,0 2.5,0 0,5 0,5 -12.5,0 -12.5,0 0,2.5 0,2.5 10,0 10,0 0,2.5 0,2.5 -12.5,0 -12.5,0 0,-2.5 0,-2.5 -2.5,0 -2.5,0 0,-7.5 0,-7.5 2.5,0 2.5,0 0,-2.5 z m 20,5 0,-2.5 -7.5,0 -7.5,0 0,2.5 0,2.5 7.5,0 7.5,0 0,-2.5 z" />
    <path
       inkscape:connector-curvature="0"
       id="path5991"
       style="font-style:normal;font-variant:normal;font-weight:500;font-stretch:normal;font-size:medium;line-height:1000%;font-family:'Press Start 2P';-inkscape-font-specification:'Press Start 2P, Medium';text-align:start;letter-spacing:0px;word-spacing:0px;writing-mode:lr-tb;text-anchor:start;fill:#550044;fill-opacity:1;stroke:none;stroke-width:1px;stroke-linecap:butt;stroke-linejoin:miter;stroke-opacity:1"
       d="m 384.54724,508.68109 0,-2.5 7.5,0 7.5,0 0,15 0,15 5,0 5,0 0,2.5 0,2.5 -15,0 -15,0 0,-2.5 0,-2.5 5,0 5,0 0,-12.5 0,-12.5 -2.5,0 -2.5,0 0,-2.5 z" />
    <path
       inkscape:connector-curvature="0"
       id="path5993"
       style="font-style:normal;font-variant:normal;font-weight:500;font-stretch:normal;font-size:medium;line-height:1000%;font-family:'Press Start 2P';-inkscape-font-specification:'Press Start 2P, Medium';text-align:start;letter-spacing:0px;word-spacing:0px;writing-mode:lr-tb;text-anchor:start;fill:#550044;fill-opacity:1;stroke:none;stroke-width:1px;stroke-linecap:butt;stroke-linejoin:miter;stroke-opacity:1"
       d="m 414.54724,531.18109 0,-15 15,0 15,0 0,2.5 0,2.5 2.5,0 2.5,0 0,5 0,5 -2.5,0 -2.5,0 0,2.5 0,2.5 -10,0 -10,0 0,5 0,5 -5,0 -5,0 0,-15 z m 25,-5 0,-5 -7.5,0 -7.5,0 0,5 0,5 7.5,0 7.5,0 0,-5 z" />
    <path
       inkscape:connector-curvature="0"
       id="path5974"
       style="font-style:normal;font-variant:normal;font-weight:500;font-stretch:normal;font-size:medium;line-height:1000%;font-family:'Press Start 2P';-inkscape-font-specification:'Press Start 2P, Medium';text-align:start;letter-spacing:0px;word-spacing:0px;writing-mode:lr-tb;text-anchor:start;fill:#ff2a7f;fill-opacity:1;stroke:none;stroke-width:1px;stroke-linecap:butt;stroke-linejoin:miter;stroke-opacity:1"
       d="m 298.54724,521.68109 0,-17.5 5,0 5,0 0,7.5 0,7.5 7.5,0 7.5,0 0,-7.5 0,-7.5 5,0 5,0 0,17.5 0,17.5 -5,0 -5,0 0,-7.5 0,-7.5 -7.5,0 -7.5,0 0,7.5 0,7.5 -5,0 -5,0 0,-17.5 z" />
    <path
       inkscape:connector-curvature="0"
       id="path5976"
       style="font-style:normal;font-variant:normal;font-weight:500;font-stretch:normal;font-size:medium;line-height:1000%;font-family:'Press Start 2P';-inkscape-font-specification:'Press Start 2P, Medium';text-align:start;letter-spacing:0px;word-spacing:0px;writing-mode:lr-tb;text-anchor:start;fill:#ff2a7f;fill-opacity:1;stroke:none;stroke-width:1px;stroke-linecap:butt;stroke-linejoin:miter;stroke-opacity:1"
       d="m 343.54724,516.68109 0,-2.5 12.5,0 12.5,0 0,2.5 0,2.5 2.5,0 2.5,0 0,5 0,5 -12.5,0 -12.5,0 0,2.5 0,2.5 10,0 10,0 0,2.5 0,2.5 -12.5,0 -12.5,0 0,-2.5 0,-2.5 -2.5,0 -2.5,0 0,-7.5 0,-7.5 2.5,0 2.5,0 0,-2.5 z m 20,5 0,-2.5 -7.5,0 -7.5,0 0,2.5 0,2.5 7.5,0 7.5,0 0,-2.5 z" />
    <path
       inkscape:connector-curvature="0"
       id="path5978"
       style="font-style:normal;font-variant:normal;font-weight:500;font-stretch:normal;font-size:medium;line-height:1000%;font-family:'Press Start 2P';-inkscape-font-specification:'Press Start 2P, Medium';text-align:start;letter-spacing:0px;word-spacing:0px;writing-mode:lr-tb;text-anchor:start;fill:#ff2a7f;fill-opacity:1;stroke:none;stroke-width:1px;stroke-linecap:butt;stroke-linejoin:miter;stroke-opacity:1"
       d="m 388.54724,506.68109 0,-2.5 7.5,0 7.5,0 0,15 0,15 5,0 5,0 0,2.5 0,2.5 -15,0 -15,0 0,-2.5 0,-2.5 5,0 5,0 0,-12.5 0,-12.5 -2.5,0 -2.5,0 0,-2.5 z" />
    <path
       inkscape:connector-curvature="0"
       id="path5980"
       style="font-style:normal;font-variant:normal;font-weight:500;font-stretch:normal;font-size:medium;line-height:1000%;font-family:'Press Start 2P';-inkscape-font-specification:'Press Start 2P, Medium';text-align:start;letter-spacing:0px;word-spacing:0px;writing-mode:lr-tb;text-anchor:start;fill:#ff2a7f;fill-opacity:1;stroke:none;stroke-width:1px;stroke-linecap:butt;stroke-linejoin:miter;stroke-opacity:1"
       d="m 418.54724,529.18109 0,-15 15,0 15,0 0,2.5 0,2.5 2.5,0 2.5,0 0,5 0,5 -2.5,0 -2.5,0 0,2.5 0,2.5 -10,0 -10,0 0,5 0,5 -5,0 -5,0 0,-15 z m 25,-5 0,-5 -7.5,0 -7.5,0 0,5 0,5 7.5,0 7.5,0 0,-5 z" />
  </g>
</svg>
